<?xml version="1.0" encoding="UTF-8"?>
<svg id="Layer_1" data-name="Layer 1" xmlns="http://www.w3.org/2000/svg" viewBox="0 0 4000 4000">
  <defs>
    <style>
      .cls-1 {
        fill: #999;
      }

      .cls-1, .cls-2, .cls-3, .cls-4, .cls-5, .cls-6, .cls-7, .cls-8, .cls-9, .cls-10, .cls-11, .cls-12 {
        stroke-width: 0px;
      }

      .cls-13 {
        opacity: .5;
      }

      .cls-2 {
        fill: #6bd6f0;
      }

      .cls-14 {
        opacity: .6;
      }

      .cls-3 {
        fill: #b2223d;
      }

      .cls-4 {
        fill: #6b184e;
      }

      .cls-5 {
        fill: #390075;
      }

      .cls-6 {
        fill: #b8c5d3;
      }

      .cls-15 {
        opacity: .35;
      }

      .cls-7 {
        fill: #102770;
      }

      .cls-8 {
        fill: #fff;
      }

      .cls-16 {
        opacity: .3;
      }

      .cls-9 {
        fill: #dbdbdb;
      }

      .cls-10 {
        fill: #ffce00;
      }

      .cls-11 {
        fill: #df156c;
      }

      .cls-12 {
        fill: #945cc6;
      }
    </style>
  </defs>
  <g>
    <circle class="cls-8" cx="1492.36" cy="2968.47" r="163.34"/>
    <path class="cls-5" d="M1492.36,3134.41c-44.32,0-86-17.26-117.34-48.6-31.34-31.34-48.6-73.01-48.6-117.34s17.26-86,48.6-117.34c31.34-31.34,73.01-48.6,117.34-48.6s86,17.26,117.34,48.6c31.34,31.34,48.6,73.01,48.6,117.34s-17.26,86-48.6,117.34h0c-31.34,31.34-73.01,48.6-117.34,48.6ZM1492.36,2807.74c-42.93,0-83.29,16.72-113.65,47.08-30.36,30.36-47.08,70.72-47.08,113.65s16.72,83.29,47.08,113.65c30.36,30.36,70.72,47.08,113.65,47.08s83.29-16.72,113.65-47.08h0c30.36-30.36,47.08-70.72,47.08-113.65s-16.72-83.29-47.08-113.65c-30.36-30.36-70.72-47.08-113.65-47.08Z"/>
  </g>
  <g class="cls-16">
    <path class="cls-5" d="M1336.04,3015.73c7.63,15.19,17.7,29.47,30.39,42.15,63.81,63.81,167.22,63.81,230.98,0,44.12-44.08,57.69-107.16,40.79-162.97,1.93,3.83,3.7,7.72,5.31,11.66-6-14.68-14.19-28.67-24.65-41.44,11.27,52.41-3.46,109.25-44.15,149.94-63.81,63.81-167.22,63.81-231.02,0-3.88-3.88-7.55-7.93-10.98-12.1,2.25,10.51,5.6,20.82,9.95,30.81-2.56-5.91-4.78-11.93-6.61-18.04Z"/>
  </g>
  <path class="cls-5" d="M1492.36,3148.5c-48.09,0-93.29-18.73-127.3-52.73-34-34-52.73-79.21-52.73-127.3s18.73-93.3,52.73-127.3c34-34,79.21-52.73,127.3-52.73s93.29,18.73,127.3,52.73c34,34,52.73,79.21,52.73,127.3s-18.73,93.29-52.73,127.3h0c-34,34-79.21,52.73-127.3,52.73ZM1492.36,2821.83c-39.17,0-75.99,15.25-103.69,42.95-27.7,27.7-42.95,64.52-42.95,103.69s15.26,75.99,42.95,103.69c27.7,27.7,64.52,42.95,103.69,42.95s75.99-15.25,103.69-42.95h0c27.7-27.7,42.95-64.52,42.95-103.69s-15.26-76-42.95-103.69c-27.7-27.7-64.52-42.95-103.69-42.95Z"/>
  <g>
    <circle class="cls-8" cx="2503.61" cy="2968.47" r="163.34"/>
    <path class="cls-5" d="M2503.61,3134.34c-42.49,0-84.99-16.17-117.34-48.52h0c-64.7-64.7-64.7-169.98,0-234.68,64.71-64.7,169.98-64.7,234.68,0,64.7,64.7,64.7,169.98,0,234.68-32.35,32.35-74.85,48.52-117.34,48.52ZM2389.96,3082.12c62.68,62.67,164.65,62.66,227.31,0,62.66-62.67,62.66-164.64,0-227.3-62.66-62.67-164.63-62.66-227.31,0-62.66,62.67-62.66,164.64,0,227.3h0Z"/>
  </g>
  <g class="cls-16">
    <path class="cls-5" d="M2664.3,3015.73c-7.63,15.19-17.7,29.47-30.39,42.15-63.81,63.81-167.22,63.81-230.98,0-44.12-44.08-57.69-107.16-40.79-162.97-1.93,3.83-3.7,7.72-5.31,11.66,6-14.68,14.19-28.67,24.65-41.44-11.27,52.41,3.46,109.25,44.15,149.94,63.81,63.81,167.22,63.81,231.02,0,3.88-3.88,7.55-7.93,10.98-12.1-2.25,10.51-5.6,20.82-9.95,30.81,2.56-5.91,4.78-11.93,6.61-18.04Z"/>
  </g>
  <path class="cls-5" d="M2503.61,3148.41c-46.1,0-92.2-17.55-127.3-52.64h0c-70.19-70.19-70.19-184.41,0-254.6,70.2-70.18,184.4-70.19,254.6,0,70.19,70.19,70.19,184.41,0,254.6-35.1,35.1-81.2,52.64-127.3,52.64ZM2399.92,3072.16c57.18,57.18,150.22,57.17,207.39,0,57.17-57.18,57.17-150.21,0-207.39-57.18-57.18-150.22-57.17-207.39,0-57.17,57.18-57.17,150.21,0,207.39h0Z"/>
  <g class="cls-16">
    <path class="cls-2" d="M2871.21,1739.46c0,66.27-7.39,130.79-21.41,192.8-234.03-56.46-529.11-90.18-849.82-90.18s-615.83,33.72-849.82,90.18c-14.02-62.01-21.41-126.53-21.41-192.8,0-481.2,390.06-871.27,871.22-871.27s871.22,390.06,871.22,871.27Z"/>
  </g>
  <g class="cls-13">
    <path class="cls-8" d="M1999.99,915.14c473.28,0,858.41,377.39,870.9,847.7.2-7.77.32-15.56.32-23.38,0-481.2-390.06-871.27-871.22-871.27s-871.23,390.06-871.23,871.27c0,7.82.12,15.61.33,23.38,12.49-470.31,397.62-847.7,870.9-847.7Z"/>
  </g>
  <path class="cls-5" d="M1137.62,1952.46l-3.73-16.52c-14.48-64.03-21.82-130.14-21.82-196.48,0-489.62,398.32-887.96,887.92-887.96s887.92,398.34,887.92,887.96c0,66.34-7.34,132.45-21.82,196.48l-3.73,16.52-16.46-3.97c-243.28-58.69-535.79-89.72-845.9-89.72s-602.66,31.02-845.9,89.72l-16.46,3.97ZM1999.99,1825.38c305.68,0,594.65,29.95,837.09,86.69,11.57-56.45,17.44-114.44,17.44-172.62,0-471.21-383.34-854.57-854.53-854.57s-854.53,383.36-854.53,854.57c0,58.18,5.86,116.17,17.44,172.62,242.4-56.74,531.37-86.69,837.09-86.69Z"/>
  <path class="cls-5" d="M1137.62,1952.46l-3.73-16.52c-14.48-64.03-21.82-130.14-21.82-196.48,0-489.62,398.32-887.96,887.92-887.96s887.92,398.34,887.92,887.96c0,66.34-7.34,132.45-21.82,196.48l-3.73,16.52-16.46-3.97c-243.28-58.69-535.79-89.72-845.9-89.72s-602.66,31.02-845.9,89.72l-16.46,3.97ZM1999.99,1825.38c305.68,0,594.65,29.95,837.09,86.69,11.57-56.45,17.44-114.44,17.44-172.62,0-471.21-383.34-854.57-854.53-854.57s-854.53,383.36-854.53,854.57c0,58.18,5.86,116.17,17.44,172.62,242.4-56.74,531.37-86.69,837.09-86.69Z"/>
  <path class="cls-8" d="M2857.24,2568.32c0,70-24.17,136.67-67.87,197.33-130.44,180.81-434.78,307.62-789.38,307.62s-658.98-126.81-789.38-307.62c-43.7-60.65-67.87-127.33-67.87-197.33,0-278.96,383.78-505.05,857.25-505.05s857.25,226.09,857.25,505.05Z"/>
  <g class="cls-16">
    <path class="cls-5" d="M1228.29,2751.86c138.82,168.6,432.15,284.9,771.7,284.9s632.83-116.3,771.69-284.9c0,0,.01-.01.02-.02-138.85,113.24-432.19,191.35-771.71,191.35s-632.92-78.12-771.72-191.36c0,.01.02.02.03.03Z"/>
  </g>
  <g class="cls-15">
    <path class="cls-4" d="M1143.49,2589.69c2.13,29.84,8.6,59.05,19.15,87.34-13.02-23.54-19.91-47.95-19.91-73.03,0-4.8.25-9.56.75-14.31Z"/>
    <path class="cls-5" d="M1160.36,2678.3c-13.42-24.27-20.23-49.27-20.23-74.29,0-4.85.25-9.76.76-14.58l5.2.09c2.09,29.29,8.48,58.43,19,86.62l-4.73,2.18Z"/>
  </g>
  <g class="cls-15">
    <path class="cls-4" d="M2857.23,2604.01c0,25.08-6.89,49.49-19.91,73.03,10.56-28.29,17.03-57.51,19.15-87.34.5,4.76.75,9.51.75,14.31Z"/>
    <path class="cls-5" d="M2839.61,2678.3l-4.73-2.18c10.52-28.18,16.91-57.32,19-86.62l5.2-.09c.51,4.83.76,9.73.76,14.58,0,25.03-6.81,50.02-20.23,74.29Z"/>
  </g>
  <g>
    <path class="cls-3" d="M3376.31,2374.95c0,58.59-38.8,114.4-108.96,165.16-209.42,151.34-698.05,312.77-1267.36,312.77s-1058-161.43-1267.36-312.77c-70.16-50.77-108.96-106.57-108.96-165.16,0-233.49,616.17-422.73,1376.32-422.73s1376.32,189.24,1376.32,422.73Z"/>
    <path class="cls-5" d="M1999.99,2855.49c-574.07,0-1060.17-162.39-1268.88-313.26-73.02-52.83-110.04-109.11-110.04-167.28,0-114.17,143.81-221.21,404.94-301.41,260.18-79.91,606.08-123.92,973.98-123.92s713.77,44.01,973.96,123.92c261.15,80.2,404.97,187.25,404.97,301.41,0,58.16-37.02,114.45-110.04,167.28-208.78,150.88-694.91,313.26-1268.89,313.26ZM1999.99,1954.83c-757.47,0-1373.71,188.47-1373.71,420.12,0,56.4,36.3,111.26,107.88,163.05,208.06,150.4,692.92,312.27,1265.83,312.27s1057.71-161.87,1265.83-312.27c71.58-51.79,107.88-106.65,107.88-163.05,0-231.65-616.24-420.12-1373.71-420.12Z"/>
  </g>
  <path class="cls-5" d="M1999.99,3089.96c-349.95,0-665.11-123.47-802.92-314.55-47.13-65.4-71.02-135.08-71.02-207.09,0-141.07,92.09-273.01,259.3-371.52,164.43-96.88,382.72-150.23,614.65-150.23s450.19,53.35,614.63,150.23c167.22,98.51,259.31,230.45,259.31,371.52,0,72.01-23.9,141.68-71.02,207.08-137.85,191.09-453.01,314.56-802.93,314.56ZM1999.99,2079.96c-463.49,0-840.56,219.08-840.56,488.36,0,64.86,21.77,127.97,64.72,187.57,131.73,182.66,436.26,300.69,775.83,300.69s644.07-118.03,775.84-300.7c42.94-59.59,64.72-122.7,64.72-187.56,0-269.28-377.07-488.36-840.56-488.36Z"/>
  <g>
    <path class="cls-12" d="M3376.31,2374.95c0,58.59-38.8,114.4-108.96,165.16-209.42,151.34-698.05,312.77-1267.36,312.77s-1058-161.43-1267.36-312.77c-70.16-50.77-108.96-106.57-108.96-165.16,0-233.49,616.17-422.73,1376.32-422.73s1376.32,189.24,1376.32,422.73Z"/>
    <path class="cls-7" d="M1999.99,2855.49c-574.07,0-1060.17-162.39-1268.88-313.26-73.02-52.83-110.04-109.11-110.04-167.28,0-114.17,143.81-221.21,404.94-301.41,260.18-79.91,606.08-123.92,973.98-123.92s713.77,44.01,973.96,123.92c261.15,80.2,404.97,187.25,404.97,301.41,0,58.16-37.02,114.45-110.04,167.28-208.78,150.88-694.91,313.26-1268.89,313.26ZM1999.99,1954.83c-757.47,0-1373.71,188.47-1373.71,420.12,0,56.4,36.3,111.26,107.88,163.05,208.06,150.4,692.92,312.27,1265.83,312.27s1057.71-161.87,1265.83-312.27c71.58-51.79,107.88-106.65,107.88-163.05,0-231.65-616.24-420.12-1373.71-420.12Z"/>
  </g>
  <g class="cls-16">
    <path class="cls-5" d="M3376.33,2374.94c0,58.59-38.81,114.39-108.96,165.17-209.45,151.32-698.08,312.78-1267.38,312.78s-1058.01-161.46-1267.34-312.78c-70.19-50.79-108.96-106.58-108.96-165.17,0-7.6.67-15.11,1.96-22.58,8.64,50.33,45.9,98.36,107,142.51,209.32,151.36,697.96,312.78,1267.34,312.78s1057.93-161.42,1267.38-312.78c61.05-44.15,98.36-92.18,107-142.51,1.29,7.47,1.96,14.98,1.96,22.58Z"/>
  </g>
  <path class="cls-5" d="M1999.99,2869.57c-577.2,0-1066.64-163.77-1277.14-315.93-76.89-55.63-115.88-115.75-115.88-178.69,0-120.88,147.35-232.7,414.89-314.88,261.49-80.31,608.86-124.54,978.12-124.54s716.6,44.23,978.09,124.54c267.57,82.18,414.92,194,414.92,314.88,0,62.94-38.99,123.06-115.87,178.69-210.57,152.17-700.04,315.94-1277.15,315.94ZM1999.99,1968.91c-366.03,0-709.92,43.71-968.31,123.07-248.69,76.38-391.31,179.52-391.31,282.97,0,51.62,34.33,102.64,102.06,151.64,206.27,149.11,687.79,309.6,1257.57,309.6s1051.24-160.49,1257.58-309.6c67.71-48.99,102.04-100.01,102.04-151.63,0-103.44-142.64-206.58-391.33-282.97-258.41-79.36-602.28-123.07-968.29-123.07Z"/>
  <g>
    <path class="cls-8" d="M3376.31,2340.39c0,58.59-38.8,114.4-108.96,165.16-209.42,151.34-698.05,257.48-1267.36,257.48s-1058-106.14-1267.36-257.48c-70.16-50.77-108.96-106.57-108.96-165.16,0-233.49,616.17-422.73,1376.32-422.73s1376.32,189.24,1376.32,422.73Z"/>
    <path class="cls-5" d="M1999.99,2765.64c-554.03,0-1052.1-101.26-1268.88-257.97-73.02-52.83-110.04-109.11-110.04-167.28,0-114.17,143.81-221.21,404.94-301.41,260.18-79.91,606.08-123.92,973.98-123.92s713.77,44.01,973.96,123.92c261.15,80.2,404.97,187.25,404.97,301.41,0,58.17-37.02,114.45-110.04,167.28-216.86,156.71-714.92,257.97-1268.89,257.97ZM1999.99,1920.27c-757.47,0-1373.71,188.47-1373.71,420.12,0,56.4,36.3,111.26,107.88,163.05,215.96,156.11,712.83,256.98,1265.83,256.98s1049.81-100.87,1265.83-256.98c71.58-51.79,107.88-106.65,107.88-163.05,0-231.65-616.24-420.12-1373.71-420.12Z"/>
  </g>
  <g>
    <path class="cls-8" d="M3376.31,2340.39c0,58.59-38.8,114.4-108.96,165.16-209.42,151.34-698.05,257.48-1267.36,257.48s-1058-106.14-1267.36-257.48c-70.16-50.77-108.96-106.57-108.96-165.16,0-233.49,616.17-422.73,1376.32-422.73s1376.32,189.24,1376.32,422.73Z"/>
    <path class="cls-5" d="M1999.99,2765.64c-554.03,0-1052.1-101.26-1268.88-257.97-73.02-52.83-110.04-109.11-110.04-167.28,0-114.17,143.81-221.21,404.94-301.41,260.18-79.91,606.08-123.92,973.98-123.92s713.77,44.01,973.96,123.92c261.15,80.2,404.97,187.25,404.97,301.41,0,58.17-37.02,114.45-110.04,167.28-216.86,156.71-714.92,257.97-1268.89,257.97ZM1999.99,1920.27c-757.47,0-1373.71,188.47-1373.71,420.12,0,56.4,36.3,111.26,107.88,163.05,215.96,156.11,712.83,256.98,1265.83,256.98s1049.81-100.87,1265.83-256.98c71.58-51.79,107.88-106.65,107.88-163.05,0-231.65-616.24-420.12-1373.71-420.12Z"/>
  </g>
  <g class="cls-16">
    <path class="cls-5" d="M3376.33,2340.39c0,58.59-38.81,114.39-108.96,165.17-209.45,151.32-698.08,257.48-1267.38,257.48s-1058.01-106.16-1267.34-257.48c-70.19-50.79-108.96-106.58-108.96-165.17,0-6.59.5-13.15,1.5-19.66,7.68,51.41,45.2,100.36,107.46,145.43,209.32,151.32,697.96,257.48,1267.34,257.48s1057.93-106.16,1267.38-257.48c62.22-45.07,99.78-94.02,107.46-145.43,1,6.51,1.5,13.06,1.5,19.66Z"/>
  </g>
  <path class="cls-5" d="M1999.99,2779.73c-556.8,0-1058.1-102.31-1277.14-260.64-76.89-55.63-115.88-115.75-115.88-178.69,0-120.88,147.35-232.7,414.89-314.88,261.49-80.31,608.86-124.54,978.12-124.54s716.6,44.23,978.09,124.54c267.57,82.18,414.92,194,414.92,314.88,0,62.94-38.99,123.06-115.87,178.69-219.11,158.34-720.42,260.65-1277.15,260.65ZM1999.99,1934.36c-366.03,0-709.92,43.71-968.31,123.07-248.69,76.38-391.31,179.52-391.31,282.96,0,51.62,34.33,102.64,102.06,151.64,213.7,154.49,707.33,254.31,1257.57,254.31s1043.8-99.83,1257.58-254.32c67.71-48.99,102.04-100.01,102.04-151.63,0-103.44-142.64-206.58-391.33-282.96-258.41-79.36-602.28-123.07-968.29-123.07Z"/>
  <path class="cls-6" d="M3376.31,2264.82c0,58.59-38.8,114.4-108.96,165.16-209.42,151.34-698.05,257.48-1267.36,257.48s-1058-106.14-1267.36-257.48c-70.16-50.77-108.96-106.57-108.96-165.16,0-233.49,616.17-422.73,1376.32-422.73s1376.32,189.24,1376.32,422.73Z"/>
  <g class="cls-14">
    <path class="cls-8" d="M3376.33,2280.46c0,58.59-38.81,114.39-108.96,165.17-209.45,151.32-698.08,257.48-1267.38,257.48s-1058.01-106.16-1267.34-257.48c-70.19-50.79-108.96-106.58-108.96-165.17,0-10.68,1.29-21.28,3.84-31.76,11.31,47.03,47.7,91.93,105.12,133.46,209.32,151.32,697.96,257.48,1267.34,257.48s1057.93-106.16,1267.38-257.48c57.38-41.52,93.77-86.43,105.12-133.46,2.55,10.47,3.84,21.07,3.84,31.76Z"/>
  </g>
  <g class="cls-14">
    <path class="cls-8" d="M3376.33,2259.6c0,9.72-1.09,19.36-3.17,28.92-48.32-220.01-644.67-393.86-1373.17-393.86s-1324.84,173.85-1373.13,393.86c-2.09-9.56-3.17-19.2-3.17-28.92,0-233.49,616.16-422.74,1376.3-422.74s1376.34,189.25,1376.34,422.74Z"/>
  </g>
  <path class="cls-5" d="M2695.32,2234.26c-114.9,60.16-382.98,102.35-695.33,102.35s-580.47-42.19-695.33-102.35c114.86-60.2,382.95-102.39,695.33-102.39s580.43,42.19,695.33,102.39Z"/>
  <path class="cls-5" d="M1999.99,2353.33c-306.09,0-582.06-40.93-703.07-104.27l-28.23-14.78,28.23-14.8c120.89-63.37,396.87-104.32,703.07-104.32s582.18,40.95,703.07,104.32l28.23,14.8-28.23,14.78c-121.02,63.34-396.98,104.27-703.07,104.27ZM1344.63,2234.26c129.51,52.54,379.32,85.68,655.36,85.68s525.84-33.14,655.35-85.68c-129.42-52.56-379.22-85.71-655.35-85.71s-525.94,33.15-655.36,85.71Z"/>
  <path class="cls-5" d="M1999.99,2353.31c-306.18,0-582.15-40.93-703.07-104.26-45.61-23.9-68.74-50.97-68.74-80.44,0-55.07,78.81-100.54,234.23-135.12,143.77-32,334.69-49.62,537.58-49.62s393.79,17.62,537.57,49.62c155.43,34.59,234.24,80.05,234.24,135.12,0,29.47-23.12,56.53-68.73,80.44-120.97,63.34-396.94,104.26-703.08,104.26ZM1999.99,2017.25c-200.53,0-388.86,17.34-530.33,48.82-153.43,34.14-208.09,75.35-208.09,102.54,0,15.62,18.05,33.69,50.84,50.87,116.5,61.02,386.39,100.45,687.58,100.45s571.05-39.43,687.59-100.45c32.78-17.18,50.83-35.25,50.83-50.87,0-27.18-54.67-68.39-208.11-102.54-141.46-31.48-329.8-48.82-530.31-48.82Z"/>
  <path class="cls-1" d="M2755.12,2168.62c0,23.29-21.28,45.45-59.8,65.64-114.89-60.22-382.97-102.41-695.33-102.41s-580.44,42.19-695.33,102.41c-38.48-20.2-59.76-42.36-59.76-65.64,0-92.85,338.02-168.05,755.09-168.05s755.13,75.2,755.13,168.05Z"/>
  <path class="cls-5" d="M1304.66,2253.12l-7.75-4.07c-45.58-23.93-68.69-50.99-68.69-80.42,0-55.09,78.8-100.56,234.21-135.14,143.75-31.99,334.66-49.61,537.57-49.61s393.81,17.62,537.57,49.61c155.44,34.58,234.25,80.05,234.25,135.14,0,29.45-23.13,56.51-68.74,80.43l-7.75,4.07-7.75-4.06c-116.48-61.05-386.37-100.5-687.58-100.5s-571.11,39.45-687.58,100.5l-7.75,4.07ZM1999.99,2115.17c299.6,0,570.26,39.2,695.04,100.25,28.06-15.95,43.4-32.42,43.4-46.79,0-27.19-54.67-68.41-208.11-102.55-141.45-31.47-329.79-48.81-530.32-48.81s-388.88,17.33-530.32,48.81c-153.42,34.14-208.08,75.36-208.08,102.55,0,14.37,15.32,30.83,43.36,46.79,124.78-61.04,395.44-100.25,695.03-100.25Z"/>
  <path class="cls-5" d="M1999.99,2353.33c-306.09,0-582.06-40.93-703.07-104.27l-28.23-14.78,28.23-14.8c120.89-63.37,396.87-104.32,703.07-104.32s582.18,40.95,703.07,104.32l28.23,14.8-28.23,14.78c-121.02,63.34-396.98,104.27-703.07,104.27ZM1344.63,2234.26c129.51,52.54,379.32,85.68,655.36,85.68s525.84-33.14,655.35-85.68c-129.42-52.56-379.22-85.71-655.35-85.71s-525.94,33.15-655.36,85.71Z"/>
  <path class="cls-5" d="M1999.99,2704.16c-556.79,0-1058.09-102.31-1277.12-260.65-76.89-55.63-115.87-115.75-115.87-178.7,0-138.9,196.55-266.03,539.26-348.78,245.77-59.3,540.98-90.65,853.73-90.65s607.93,31.35,853.73,90.65c342.73,82.76,539.3,209.89,539.3,348.78,0,62.92-38.98,123.04-115.86,178.7-219.18,158.34-720.49,260.65-1277.17,260.65ZM1999.99,1858.77c-310.16,0-602.66,31.02-845.9,89.72-321.67,77.67-513.7,195.93-513.7,316.33,0,51.63,34.33,102.65,102.05,151.65,213.7,154.49,707.33,254.31,1257.55,254.31s1043.76-99.83,1257.6-254.32c67.71-49.02,102.04-100.04,102.04-151.64,0-120.4-192.05-238.65-513.75-316.33-243.28-58.69-535.79-89.71-845.9-89.71Z"/>
  <g>
    <path class="cls-8" d="M2292.39,2287.54c4.83,15-5.25,30.69-20.92,32.38-29.99,3.24-61.1,6.04-93.13,8.37-74.05,5.43-153.19,8.33-235.32,8.33-40.43,0-80.13-.69-118.87-2.07-14.55-.52-28.96-1.11-43.19-1.83-17.98-.87-35.74-1.88-53.22-3.03-15.5-1.02-26.17-15.82-22.45-30.9,13.08-53.05,35.9-113.71,75.67-168.19,7.64-10.47,15.92-20.71,24.87-30.62,6.7-7.42,17.29-9.98,26.69-6.58,108.87,39.27,228.07,39.41,337.03.4,10.14-3.63,21.5-.36,28.07,8.18,46.51,60.44,76.04,127.35,94.78,185.57Z"/>
    <path class="cls-5" d="M1943.01,2339.22c-40.37,0-80.4-.7-118.96-2.08-14.56-.52-28.98-1.11-43.23-1.83-17.88-.86-35.8-1.88-53.26-3.03-8.11-.54-15.51-4.6-20.31-11.16-4.83-6.61-6.48-14.98-4.51-22.97,16.03-64.99,41.63-121.88,76.1-169.1,7.88-10.78,16.31-21.16,25.04-30.83,7.41-8.22,18.99-11.09,29.52-7.29,108.06,38.98,227.13,39.11,335.27.4,11.29-4.05,23.75-.41,31.02,9.04,40.17,52.21,72.2,114.91,95.19,186.36h0c2.56,7.94,1.42,16.5-3.12,23.48-4.5,6.93-11.79,11.41-20,12.3-30.02,3.24-61.39,6.06-93.23,8.38-75.47,5.53-154.71,8.33-235.51,8.33ZM1824,2094.5c-6.11,0-12.02,2.53-16.26,7.22-8.62,9.54-16.93,19.78-24.7,30.41-34.06,46.67-59.38,102.95-75.25,167.27-1.6,6.48-.26,13.28,3.66,18.64,3.88,5.31,9.87,8.6,16.44,9.03,17.42,1.15,35.31,2.17,53.17,3.03,14.23.73,28.63,1.31,43.16,1.83,38.51,1.37,78.47,2.07,118.78,2.07,80.67,0,159.78-2.8,235.14-8.32,31.77-2.32,63.08-5.13,93.04-8.36,6.65-.72,12.55-4.35,16.19-9.96,3.67-5.66,4.59-12.6,2.53-19.03h0c-22.81-70.88-54.56-133.04-94.36-184.78-5.89-7.65-16-10.59-25.12-7.31-109.29,39.13-229.6,38.98-338.8-.41-2.5-.9-5.07-1.34-7.62-1.34Z"/>
  </g>
  <g class="cls-15">
    <path class="cls-5" d="M2271.45,2319.9c-29.96,3.26-61.09,6.05-93.1,8.39-74.07,5.43-153.2,8.35-235.32,8.35-40.44,0-80.17-.71-118.89-2.09-14.52-.54-28.96-1.13-43.19-1.84-17.99-.88-35.72-1.88-53.21-3.05-15.52-1-26.17-15.82-22.45-30.88,3.46-14.11,7.64-28.75,12.64-43.69,2.92,1.54,6.26,2.5,9.81,2.75,17.49,1.13,35.22,2.17,53.21,3,14.23.75,28.67,1.34,43.19,1.84,38.73,1.38,78.46,2.09,118.89,2.09,82.13,0,161.25-2.92,235.32-8.35,32.01-2.3,63.14-5.13,93.1-8.35,2.25-.25,4.38-.79,6.34-1.54,5.51,13.98,10.35,27.71,14.61,40.98,4.8,15.02-5.26,30.71-20.95,32.38Z"/>
  </g>
  <path class="cls-5" d="M1943.01,2353.31c-40.54,0-80.73-.7-119.47-2.09-14.63-.52-29.12-1.11-43.45-1.84-17.41-.84-34.96-1.83-52.14-2.95-12.63-.83-24.15-7.16-31.61-17.38-7.49-10.26-10.03-23.22-6.95-35.57,16.49-66.24,42.76-124.35,78.08-172.72,11.67-15.99,24.5-31.07,38.11-44.82l7.77-7.85,10.26,4.08c114.9,45.69,241.44,45.64,356.29-.13l11.27-4.49,7.75,9.33c44.6,53.67,80.18,119.15,105.75,194.61h0c4.95,14.58,3.02,30.37-5.29,43.33-8.31,12.95-21.86,21.29-37.18,22.87-26.75,2.77-54.55,5.21-82.65,7.25-75.81,5.56-155.4,8.37-236.54,8.37ZM1821.79,2107.24c-9.67,10.4-18.85,21.53-27.37,33.2-32.76,44.86-57.19,99.07-72.64,161.1-.93,3.73.55,6.5,1.52,7.82.95,1.3,3.09,3.51,6.83,3.75,16.98,1.11,34.35,2.1,51.61,2.93,14.2.72,28.53,1.31,42.98,1.82,38.34,1.37,78.14,2.06,118.28,2.06,80.33,0,159.1-2.79,234.11-8.28,27.76-2.02,55.23-4.43,81.64-7.16,5.16-.53,9.71-3.34,12.51-7.69,2.79-4.36,3.44-9.67,1.78-14.58h0c-22.79-67.25-53.81-125.97-92.31-174.72-116.2,43.17-242.76,43.08-358.95-.23Z"/>
  <path class="cls-11" d="M2422.89,1593.48c0,106.61-34.56,204.52-92.34,281.8-56.93,76.14-97.57,162.11-119.59,252.52l-.05.05c-135.44,53.97-286.39,54.02-421.83.15-22.02-90.46-62.66-176.53-119.64-252.72-57.77-77.23-92.34-175.19-92.34-281.8,0-249.51,189.31-451.76,422.87-451.76s422.92,202.25,422.92,451.76Z"/>
  <g class="cls-16">
    <path class="cls-5" d="M2422.89,1593.48c0,106.62-34.55,204.53-92.35,281.81-56.92,76.12-97.57,162.08-119.56,252.52l-.08.04c-135.42,53.96-286.36,54-421.82.12-22.03-90.43-62.68-176.52-119.64-252.68-57.76-77.24-92.35-175.19-92.35-281.81,0-8.6.21-17.19.71-25.66,4.92,96.78,38.48,185.41,91.64,256.52,26.67,35.68,49.76,73.51,69.04,112.95,50.45,103.19,156.81,167.75,271.54,162.4,2.29-.11,4.58-.22,6.87-.34,105.03-5.47,198.46-67.76,244.67-162.23,19.27-39.38,42.34-77.16,68.98-112.78,53.21-71.15,86.72-159.75,91.64-256.52.5,8.47.71,17.07.71,25.66Z"/>
  </g>
  <g class="cls-13">
    <path class="cls-8" d="M1579,1615.81c20.32-229.23,201.06-408.55,420.99-408.55s400.62,179.32,420.98,408.55c1.05-11.56,1.55-23.26,1.74-35.04-6.3-243.63-193.17-439.05-422.75-439.05s-416.51,195.53-422.7,439.26c.2,11.71.69,23.34,1.74,34.83Z"/>
  </g>
  <path class="cls-5" d="M1999.8,2185.23c-73.49,0-146.96-13.91-216.89-41.72l-8.01-3.19-2.04-8.38c-21.68-89.04-60.97-172.03-116.79-246.67-62.58-83.65-95.66-184.56-95.66-291.8,0-258.3,197.19-468.45,439.56-468.45s439.62,210.15,439.62,468.45c0,107.19-33.08,208.09-95.66,291.79-55.81,74.64-95.08,157.56-116.74,246.48l-1.16,4.77-5.89,5.6-3.04,1.24c-70.05,27.92-143.68,41.88-217.29,41.88ZM1803.17,2115.57c127.29,48.41,266.41,48.35,393.68-.16,23.12-90.12,63.59-174.23,120.33-250.13,58.23-77.89,89.01-171.88,89.01-271.8,0-239.9-182.23-435.06-406.23-435.06s-406.18,195.17-406.18,435.06c0,99.98,30.78,193.96,89.01,271.8,56.76,75.9,97.23,160.05,120.37,250.29ZM2210.96,2127.8h.05-.05Z"/>
  <g>
    <ellipse class="cls-5" cx="1808.29" cy="1710.92" rx="102.46" ry="145.06" transform="translate(-549.62 912.55) rotate(-24.71)"/>
    <g>
      <ellipse class="cls-8" cx="1782.18" cy="1673.63" rx="58.66" ry="49.66" transform="translate(23.1 3371.54) rotate(-87.19)"/>
      <path class="cls-5" d="M1781.39,1734.88c-.74,0-1.48-.02-2.22-.05-28.79-1.42-50.86-30.02-49.2-63.76.79-16.27,6.93-31.31,17.26-42.37,10.44-11.17,23.86-16.92,37.95-16.26,14.03.69,26.87,7.76,36.17,19.9,9.2,12.02,13.83,27.59,13.02,43.85-1.61,32.87-25.16,58.68-52.99,58.68ZM1782.95,1617.61c-11.76,0-23.02,5.16-31.9,14.66-9.5,10.16-15.13,24.03-15.87,39.06-1.51,30.87,18.33,57.02,44.25,58.29,26.07,1.29,48.23-22.81,49.74-53.67h0c.74-15.03-3.5-29.39-11.96-40.43-8.35-10.9-19.82-17.25-32.29-17.86-.66-.03-1.32-.05-1.98-.05Z"/>
    </g>
    <g>
      <ellipse class="cls-8" cx="1846.52" cy="1776.79" rx="26.14" ry="22.13" transform="translate(-18.74 3533.9) rotate(-87.19)"/>
      <path class="cls-5" d="M1846.18,1804.87c-.35,0-.69,0-1.04-.03-6.48-.32-12.41-3.58-16.7-9.17-4.21-5.5-6.33-12.63-5.97-20.06.76-15.47,11.97-27.62,25.43-26.87,13.26.65,23.43,13.77,22.67,29.24-.36,7.43-3.17,14.31-7.9,19.38-4.56,4.88-10.38,7.52-16.48,7.52ZM1846.87,1752.61c-10.75,0-19.87,10.2-20.51,23.19-.32,6.51,1.52,12.73,5.17,17.5,3.58,4.67,8.48,7.39,13.8,7.65,5.32.24,10.47-1.96,14.49-6.26,4.1-4.39,6.54-10.39,6.86-16.91.65-13.32-7.86-24.6-18.97-25.15-.28-.01-.56-.02-.84-.02Z"/>
    </g>
  </g>
  <g>
    <ellipse class="cls-5" cx="2191.7" cy="1710.92" rx="145.06" ry="102.46" transform="translate(-278.73 2986.75) rotate(-65.29)"/>
    <g>
      <ellipse class="cls-8" cx="2217.81" cy="1673.63" rx="49.66" ry="58.66" transform="translate(-79.46 110.85) rotate(-2.81)"/>
      <path class="cls-5" d="M2218.6,1734.88c-27.83,0-51.37-25.81-52.99-58.68h0c-.8-16.26,3.83-31.84,13.03-43.85,9.3-12.14,22.14-19.21,36.17-19.9,13.93-.68,27.5,5.08,37.95,16.26,10.33,11.05,16.46,26.1,17.26,42.37,1.66,33.74-20.41,62.34-49.2,63.76-.74.04-1.48.05-2.22.05ZM2217.04,1617.61c-.66,0-1.32.02-1.98.05-12.47.61-23.93,6.96-32.28,17.86-8.45,11.04-12.7,25.39-11.96,40.43h0c1.51,30.87,23.72,54.92,49.74,53.67,25.91-1.27,45.76-27.42,44.25-58.29-.74-15.03-6.37-28.9-15.86-39.06-8.88-9.5-20.14-14.66-31.9-14.66Z"/>
    </g>
    <g>
      <ellipse class="cls-8" cx="2153.46" cy="1776.79" rx="22.13" ry="26.14" transform="translate(-84.59 107.81) rotate(-2.81)"/>
      <path class="cls-5" d="M2153.82,1804.87c-12.82,0-23.66-11.83-24.4-26.89h0c-.76-15.47,9.41-28.58,22.67-29.24,13.24-.73,24.67,11.4,25.43,26.87.37,7.43-1.75,14.56-5.97,20.06-4.29,5.6-10.22,8.86-16.7,9.17-.35.02-.69.03-1.03.03ZM2133.31,1777.78c.66,13.32,10.1,23.69,21.34,23.17,5.32-.26,10.22-2.98,13.8-7.65,3.65-4.77,5.49-10.99,5.17-17.5-.66-13.33-10.42-23.73-21.34-23.17-11.12.55-19.62,11.83-18.97,25.15h0Z"/>
    </g>
  </g>
  <path class="cls-5" d="M1930.27,1873.45c9.08,18.3,16.79,30.9,27.98,40.51,5.52,4.77,11.7,9.05,18.82,12.11,7.08,3.03,15.02,4.65,22.93,4.46,16-.19,30.82-7.17,41.64-16.67,1.4-1.18,2.78-2.39,3.95-3.79.6-.68,1.29-1.31,1.95-1.96l1.73-2.14,1.77-2.16c.51-.78.97-1.59,1.53-2.35,1.12-1.52,2.22-3.1,3.18-4.8,4.32-6.6,8.31-14.07,13.97-23.21l.05-.08c.73-1.17,2.27-1.53,3.44-.81.37.23.66.54.86.89,5.47,9.62,6.52,20.98,4.04,31.89l-1.03,4.08-1.56,3.94c-.52,1.32-1.12,2.61-1.71,3.9l-2.13,3.7c-1.38,2.51-2.95,4.91-4.77,7.13-1.71,2.32-3.67,4.41-5.71,6.43-8.15,8.1-18.24,13.94-28.8,17.38-10.57,3.51-21.53,4.96-32.39,4.88-10.86-.22-21.72-1.81-32.25-5.26-10.49-3.42-20.74-8.95-28.84-17.11-8.1-8.07-13.96-18.5-16.24-29.37-2.24-10.88-1.28-21.97,3.26-31.58.57-1.2,2-1.71,3.2-1.15.51.24.89.64,1.13,1.11l.02.04Z"/>
  <g>
    <path class="cls-9" d="M1840,2050.49v282.22c-27.96-1.35-55.36-3.04-82.04-5.08-3.66-.28-7.29-.55-10.92-.86v-276.27c0-18.63,10.95-34.69,26.78-42.12,5.98-2.8,12.65-4.35,19.7-4.35,4.98,0,9.74.76,14.2,2.21,7.12,2.28,13.51,6.22,18.66,11.4,8.4,8.4,13.61,20.04,13.61,32.86Z"/>
    <path class="cls-5" d="M1842.61,2335.45l-2.74-.13c-28.06-1.35-55.68-3.06-82.11-5.08-3.67-.28-7.3-.55-10.94-.87l-2.38-.2v-278.67c0-18.96,11.1-36.42,28.28-44.48,11.18-5.23,24.35-5.99,35.82-2.26,7.43,2.38,14.24,6.55,19.7,12.05,9.27,9.27,14.37,21.59,14.37,34.7v284.95ZM1749.66,2324.37c2.83.23,5.65.45,8.51.66,25.52,1.95,52.16,3.61,79.23,4.94v-279.48c0-11.71-4.56-22.73-12.85-31.02-4.89-4.91-10.97-8.63-17.61-10.76-10.25-3.33-22.02-2.64-32,2.02-15.35,7.21-25.28,22.81-25.28,39.76v273.87Z"/>
  </g>
  <g>
    <path class="cls-8" d="M1839.99,2050.48v282.23c-27.96-1.34-55.34-3.05-82.04-5.09-3.63-.25-7.26-.54-10.89-.83v-276.3c0-18.61,10.93-34.68,26.79-42.11,5.97-2.8,12.64-4.34,19.7-4.34,4.97,0,9.72.75,14.19,2.21,7.09,2.25,13.52,6.22,18.65,11.39,8.39,8.39,13.6,20.03,13.6,32.84Z"/>
    <path class="cls-5" d="M1842.6,2335.45l-2.73-.13c-27.43-1.31-55.06-3.02-82.12-5.1-3.41-.23-6.85-.51-10.29-.78l-3.01-.24v-278.71c0-18.96,11.11-36.42,28.29-44.47,11.12-5.21,24.39-5.98,35.8-2.25,7.41,2.35,14.23,6.52,19.7,12.03,9.26,9.26,14.36,21.57,14.36,34.68v284.96ZM1749.66,2324.38c2.82.22,5.64.44,8.46.64,26.13,2,52.78,3.67,79.26,4.96v-279.49c0-11.71-4.56-22.72-12.84-31-4.89-4.93-10.97-8.64-17.6-10.75-10.2-3.34-22.06-2.64-31.99,2-15.36,7.2-25.29,22.8-25.29,39.74v273.9Z"/>
  </g>
  <g class="cls-16">
    <path class="cls-5" d="M1839.99,2116.38v216.33c-27.96-1.34-55.34-3.05-82.04-5.09-3.63-.25-7.26-.54-10.89-.83v-210.41c0-18.61,10.93-34.68,26.79-42.11,5.97-2.84,12.64-4.38,19.7-4.38,4.97,0,9.72.75,14.19,2.21,7.09,2.3,13.52,6.22,18.65,11.39,8.39,8.43,13.6,20.07,13.6,32.88Z"/>
  </g>
  <path class="cls-5" d="M1856.69,2350.23l-17.5-.84c-28.19-1.36-55.95-3.08-82.5-5.11-3.7-.28-7.39-.56-11.07-.88l-15.27-1.31v-291.6c0-24.39,14.28-46.86,36.38-57.23,14.43-6.75,31.3-7.74,46.15-2.91,9.51,3.05,18.29,8.42,25.34,15.51,11.89,11.9,18.47,27.76,18.47,44.63v299.73ZM1763.74,2311.33c19.34,1.45,39.29,2.72,59.57,3.82v-264.65c0-7.95-3.1-15.43-8.72-21.06-3.33-3.35-7.45-5.87-11.96-7.31-6.98-2.27-14.97-1.8-21.73,1.37-10.41,4.89-17.16,15.49-17.16,27v260.83Z"/>
  <ellipse class="cls-11" cx="1844.71" cy="2180.78" rx="41.95" ry="57.84"/>
  <g class="cls-15">
    <ellipse class="cls-5" cx="1844.71" cy="2180.78" rx="41.95" ry="57.84"/>
  </g>
  <path class="cls-5" d="M1844.71,2251.67c-30.83,0-54.99-31.14-54.99-70.88s24.15-70.88,54.99-70.88,54.99,31.14,54.99,70.88-24.16,70.88-54.99,70.88ZM1844.71,2135.98c-15.67,0-28.9,20.52-28.9,44.8s13.23,44.8,28.9,44.8,28.91-20.52,28.91-44.8-13.24-44.8-28.91-44.8Z"/>
  <ellipse class="cls-11" cx="1754.62" cy="2202.72" rx="85.39" ry="98.25"/>
  <g class="cls-13">
    <path class="cls-8" d="M1840.03,2202.72c0,5.55-.13,10.81-.38,15.77-4.01-82.46-40.56-82.46-85.05-82.46s-77.75,35.72-84.26,82.46c-.75-5.13-1.13-10.39-1.13-15.77,0-54.25,38.23-98.24,85.38-98.24s85.42,0,85.42,98.24Z"/>
  </g>
  <g class="cls-15">
    <path class="cls-4" d="M1840.03,2202.72c0,98.24-38.27,98.24-85.42,98.24s-85.38-43.98-85.38-98.24c0-8.39.92-16.48,2.63-24.25,9.39,42.57,42.86,74.03,82.75,74.03,42.9,0,78.45,0,84.51-74.03.63,7.34.92,15.4.92,24.25Z"/>
    <path class="cls-5" d="M1754.61,2303.56c-48.52,0-87.99-45.24-87.99-100.84,0-8.37.91-16.71,2.69-24.81l2.55-11.55,2.55,11.55c9.35,42.38,42.33,71.99,80.21,71.99,42.49,0,76.05,0,81.91-71.63h5.2c.63,7.29.93,15.3.93,24.46,0,100.84-40.79,100.84-88.03,100.84ZM1672.5,2190.57c-.44,4.02-.67,8.08-.67,12.14,0,52.73,37.13,95.63,82.77,95.63s81.92,0,82.8-92.17c-12.4,48.94-45.4,48.94-82.8,48.94s-69.18-26-82.11-64.54Z"/>
  </g>
  <path class="cls-5" d="M1754.62,2317.67c-56.29,0-102.09-51.57-102.09-114.94s45.8-114.95,102.09-114.95,102.08,8.46,102.08,114.95-44.24,114.94-102.08,114.94ZM1754.62,2121.16c-37.88,0-68.7,36.59-68.7,81.56s30.82,81.56,68.7,81.56c45.74,0,68.69,0,68.69-81.56s-22.95-81.56-68.69-81.56Z"/>
  <g>
    <path class="cls-9" d="M2167.54,2050.49v282.22c27.96-1.35,55.36-3.04,82.04-5.08,3.66-.28,7.29-.55,10.92-.86v-276.27c0-18.63-10.95-34.69-26.78-42.12-5.98-2.8-12.65-4.35-19.7-4.35-4.98,0-9.74.76-14.2,2.21-7.12,2.28-13.51,6.22-18.66,11.4-8.4,8.4-13.61,20.04-13.61,32.86Z"/>
    <path class="cls-5" d="M2164.94,2335.45v-284.95c0-13.11,5.1-25.43,14.38-34.71,5.46-5.49,12.27-9.66,19.71-12.04,11.45-3.72,24.63-2.96,35.8,2.26,17.18,8.07,28.28,25.53,28.28,44.49v278.67l-2.38.2c-3.64.31-7.27.59-10.94.87-26.42,2.02-54.05,3.73-82.11,5.08l-2.74.13ZM2214.02,2006.62c-4.64,0-9.14.7-13.4,2.08-6.65,2.13-12.74,5.85-17.62,10.76-8.29,8.29-12.85,19.31-12.85,31.02v279.48c27.07-1.33,53.71-2.99,79.23-4.94,2.85-.22,5.68-.43,8.51-.66v-273.87c0-16.95-9.92-32.55-25.28-39.76-5.82-2.72-12.08-4.11-18.59-4.11Z"/>
  </g>
  <g>
    <path class="cls-8" d="M2167.56,2050.48v282.23c27.96-1.34,55.34-3.05,82.04-5.09,3.63-.25,7.26-.54,10.89-.83v-276.3c0-18.61-10.93-34.68-26.79-42.11-5.97-2.8-12.64-4.34-19.7-4.34-4.97,0-9.72.75-14.19,2.21-7.09,2.25-13.52,6.22-18.65,11.39-8.39,8.39-13.6,20.03-13.6,32.84Z"/>
    <path class="cls-5" d="M2164.95,2335.45v-284.96c0-13.1,5.1-25.42,14.37-34.69,5.46-5.51,12.28-9.67,19.71-12.03,11.37-3.72,24.66-2.96,35.78,2.25,17.19,8.05,28.29,25.51,28.29,44.47v278.71l-3.01.24c-3.44.28-6.88.55-10.31.79-27.04,2.07-54.67,3.79-82.1,5.09l-2.73.13ZM2214,2006.65c-4.65,0-9.15.7-13.38,2.08-6.65,2.11-12.74,5.83-17.61,10.75-8.29,8.29-12.85,19.3-12.85,31.01v279.49c26.48-1.29,53.13-2.95,79.24-4.95,2.83-.2,5.66-.42,8.48-.64v-273.9c0-16.95-9.93-32.55-25.29-39.74-5.8-2.72-12.06-4.09-18.59-4.09Z"/>
  </g>
  <g class="cls-16">
    <path class="cls-5" d="M2167.56,2116.38v216.33c27.96-1.34,55.34-3.05,82.04-5.09,3.63-.25,7.26-.54,10.89-.83v-210.41c0-18.61-10.93-34.68-26.79-42.11-5.97-2.84-12.64-4.38-19.7-4.38-4.97,0-9.72.75-14.19,2.21-7.09,2.3-13.52,6.22-18.65,11.39-8.39,8.43-13.6,20.07-13.6,32.88Z"/>
  </g>
  <path class="cls-5" d="M2150.85,2350.23v-299.73c0-16.87,6.57-32.73,18.5-44.66,7.01-7.06,15.79-12.43,25.36-15.5,6.12-1.99,12.63-3.01,19.3-3.01,9.36,0,18.36,1.99,26.77,5.92,22.12,10.38,36.4,32.85,36.4,57.25v291.6l-15.27,1.31c-3.68.31-7.37.59-11.08.88-26.55,2.03-54.3,3.75-82.49,5.11l-17.5.84ZM2214.02,2020.71c-3.16,0-6.2.47-9.04,1.39-4.56,1.46-8.69,3.98-11.98,7.29-5.66,5.66-8.76,13.14-8.76,21.1v264.65c20.27-1.09,40.23-2.37,59.57-3.82v-260.83c0-11.51-6.74-22.11-17.18-27.01-3.93-1.83-8.18-2.77-12.61-2.77Z"/>
  <ellipse class="cls-11" cx="2162.83" cy="2180.78" rx="41.95" ry="57.84"/>
  <g class="cls-15">
    <ellipse class="cls-5" cx="2162.83" cy="2180.78" rx="41.95" ry="57.84"/>
  </g>
  <path class="cls-5" d="M2162.83,2251.67c-30.83,0-54.99-31.14-54.99-70.88s24.16-70.88,54.99-70.88,54.99,31.14,54.99,70.88-24.15,70.88-54.99,70.88ZM2162.83,2135.98c-15.67,0-28.91,20.52-28.91,44.8s13.24,44.8,28.91,44.8,28.9-20.52,28.9-44.8-13.23-44.8-28.9-44.8Z"/>
  <ellipse class="cls-11" cx="2252.92" cy="2202.72" rx="85.39" ry="98.25"/>
  <g class="cls-13">
    <path class="cls-8" d="M2167.51,2202.72c0,5.55.13,10.81.38,15.77,4.01-82.46,40.56-82.46,85.05-82.46s77.75,35.72,84.26,82.46c.75-5.13,1.13-10.39,1.13-15.77,0-54.25-38.23-98.24-85.38-98.24s-85.42,0-85.42,98.24Z"/>
  </g>
  <g class="cls-15">
    <path class="cls-4" d="M2167.51,2202.72c0,98.24,38.27,98.24,85.42,98.24s85.38-43.98,85.38-98.24c0-8.39-.92-16.48-2.63-24.25-9.39,42.57-42.86,74.03-82.75,74.03-42.9,0-78.45,0-84.51-74.03-.63,7.34-.92,15.4-.92,24.25Z"/>
    <path class="cls-5" d="M2252.94,2303.56c-47.24,0-88.03,0-88.03-100.84,0-9.16.3-17.16.93-24.47h5.2c5.86,71.64,39.42,71.64,81.91,71.64,37.88,0,70.86-29.6,80.21-71.99l2.55-11.55,2.55,11.55c1.78,8.09,2.69,16.44,2.69,24.81,0,55.61-39.47,100.84-87.99,100.84ZM2170.14,2206.17c.88,92.17,37.1,92.17,82.8,92.17s82.77-42.9,82.77-95.63c0-4.06-.22-8.12-.67-12.14-12.92,38.53-45.33,64.54-82.11,64.54s-70.4,0-82.8-48.94Z"/>
  </g>
  <path class="cls-5" d="M2252.92,2317.67c-57.84,0-102.09-8.46-102.09-114.94s44.25-114.95,102.09-114.95,102.09,51.57,102.09,114.95-45.8,114.94-102.09,114.94ZM2252.92,2121.16c-45.74,0-68.7,0-68.7,81.56s22.96,81.56,68.7,81.56c37.88,0,68.7-36.59,68.7-81.56s-30.82-81.56-68.7-81.56Z"/>
  <path class="cls-5" d="M1999.99,2353.33c-40.16,0-80.34-.71-119.45-2.1-14.66-.55-29.12-1.13-43.47-1.85-27.64-1.32-55.38-3.05-82.45-5.12-3.43-.23-6.97-.51-10.51-.8-200.3-15.97-363.13-50.37-447.2-94.41-18.12-9.54-32.79-19.58-43.6-29.85-12.63-11.95-20.57-24.7-23.64-37.94-1.91-3.31-3.76-6.62-5.62-9.96-2.3-4.07-4.59-8.29-6.83-12.51-1.95-3.62-3.91-7.33-5.87-11.08-.46-.84-.89-1.67-1.31-2.55-1.86-3.62-3.7-7.24-5.52-10.89l-.63-1.25c-2.01-4.1-3.95-8.06-5.84-12.03-.05-.08-.2-.4-.4-.84-1.83-3.84-3.64-7.69-5.39-11.57-.51-1.04-.98-2.08-1.44-3.17-3.1-6.76-6.42-14.39-10.26-23.58-1.05-2.43-2.13-5.04-3.16-7.69-1.16-2.79-2.29-5.5-3.33-8.21-.64-1.56-1.38-3.44-2.09-5.39-1.25-3.13-2.46-6.26-3.59-9.39-.52-1.29-1.01-2.62-1.49-3.95-1.42-3.82-2.7-7.39-3.98-10.97-.67-1.87-1.34-3.79-1.96-5.66-1.13-3.13-2.34-6.73-3.52-10.28-4.15-12.38-8.07-25.07-11.61-37.64-1.16-3.98-2.28-8.1-3.39-12.27-.3-.98-.7-2.5-1.09-4.02-1.11-4.2-2.23-8.53-3.27-12.86-.25-.9-.47-1.76-.65-2.62-1.04-4.15-2.01-8.3-2.94-12.46-.16-.6-.31-1.2-.44-1.81-2.25-8.94,3.14-18.15,12.08-20.4,8.92-2.25,17.98,3.03,20.23,11.97l.6,2.48c.93,4.15,1.89,8.31,2.94,12.46l.56,2.24c1.01,4.23,2.11,8.45,3.21,12.64.3,1.15.57,2.22.88,3.25,1.2,4.43,2.25,8.32,3.38,12.21,3.44,12.19,7.19,24.35,11.19,36.29,1.11,3.36,2.23,6.69,3.4,9.94.67,2.01,1.25,3.68,1.83,5.31,1.23,3.44,2.46,6.88,3.72,10.27.56,1.51.94,2.57,1.36,3.6l.25.66c1.06,2.95,2.2,5.89,3.38,8.84l.19.5c.59,1.64,1.22,3.23,1.86,4.79,1.05,2.75,2.07,5.17,3.07,7.6l.32.78c.89,2.27,1.81,4.51,2.78,6.74,3.77,9.02,6.94,16.32,10.08,23.17.42.97.65,1.5.92,2.02l.28.59c1.75,3.86,3.54,7.67,5.36,11.49l.26.58c1.98,4.13,3.81,7.86,5.63,11.58l.57,1.13c1.8,3.61,3.61,7.18,5.45,10.74l.26.52c.16.34.31.66.49.98l.26.48c1.93,3.69,3.85,7.34,5.82,10.99,2.15,4.05,4.29,8.01,6.51,11.92,2.26,4.07,4.46,7.97,6.74,11.87l1.52,2.61.51,2.98c1.22,7.1,6.04,14.68,14.34,22.54,8.61,8.18,20.77,16.42,36.16,24.52,80.2,42.02,238.35,75.07,433.86,90.65,3.89.31,7.29.59,10.74.82,26.89,2.06,54.32,3.76,81.66,5.07,14.24.71,28.57,1.29,43.06,1.83,38.67,1.38,78.47,2.07,118.23,2.07,80.17,0,158.93-2.79,234.11-8.3,42.5-3.11,83.53-7.05,121.94-11.69,148.76-17.79,266.49-46.37,331.53-80.46,15.32-8.05,27.47-16.29,36.1-24.49,8.32-7.87,13.17-15.48,14.42-22.62l.51-2.92,1.48-2.57c5.92-10.23,11.61-20.54,16.89-30.66,1.71-3.21,3.31-6.3,4.88-9.43.71-1.35,1.21-2.29,1.66-3.26l.34-.68c1.59-3.06,3.1-6.12,4.57-9.18l.63-1.3c.49-1.02.99-2.02,1.46-3.05,1.55-3.2,2.96-6.13,4.25-9.06l.23-.51c2.88-6.01,5.6-12.1,8.28-18.2,2.1-4.8,4.17-9.64,6.16-14.52,1.91-4.49,3.63-8.8,5.32-13.14.72-1.78,1.36-3.39,1.96-5.04l.19-.5c1.18-2.94,2.32-5.89,3.38-8.84l.25-.66c.46-1.11.87-2.26,1.28-3.41,1.34-3.6,2.57-7.03,3.8-10.46.59-1.64,1.17-3.3,1.71-4.93,1.29-3.62,2.41-6.95,3.49-10.23,4.03-12,7.78-24.17,11.19-36.25,1.17-4.03,2.23-7.92,3.28-11.85.43-1.44.67-2.42.93-3.39,1.19-4.55,2.29-8.78,3.31-13.01l.55-2.21c1.05-4.21,2.04-8.41,3.02-12.62l.14-.64c.12-.57.24-1.14.38-1.69,2.26-8.94,11.34-14.35,20.26-12.11,8.94,2.25,14.36,11.32,12.11,20.25l-.43,1.94c-.95,4.1-1.95,8.35-3.02,12.61-.18.86-.39,1.73-.65,2.64-1.05,4.33-2.17,8.65-3.29,12.94-.44,1.68-.8,3.08-1.21,4.43-.97,3.67-2.09,7.79-3.29,11.91-3.51,12.47-7.43,25.16-11.6,37.58-1.14,3.46-2.35,7.07-3.61,10.59-.49,1.49-1.16,3.41-1.83,5.29-1.28,3.58-2.56,7.16-3.88,10.7-.5,1.37-1.02,2.81-1.59,4.21-1.13,3.13-2.34,6.26-3.59,9.39-.71,1.93-1.46,3.82-2.21,5.67-1.73,4.47-3.59,9.09-5.54,13.67-2,4.91-4.19,10-6.41,15.09-2.81,6.39-5.64,12.73-8.64,18.99-1.43,3.24-2.98,6.48-4.54,9.68-.43.94-1.02,2.17-1.63,3.4l-.57,1.17c-1.55,3.22-3.16,6.47-4.84,9.73-.66,1.41-1.37,2.78-2.12,4.19-1.49,3-3.22,6.34-5,9.67-5.04,9.66-10.49,19.59-16.17,29.46-3.1,13.25-11.06,26-23.69,37.95-10.84,10.3-25.51,20.34-43.56,29.82-68.56,35.94-190.39,65.79-343.06,84.05-38.91,4.71-80.47,8.69-123.49,11.84-75.98,5.57-155.57,8.39-236.54,8.39ZM1227.94,2106.15c.07.14.13.28.2.42-.07-.15-.13-.29-.2-.42Z"/>
  <ellipse class="cls-10" cx="1999.99" cy="2499.51" rx="99.14" ry="96.97"/>
  <g class="cls-14">
    <path class="cls-8" d="M2099.14,2499.51c0,7.26-.79,14.31-2.38,21.07-9.81-43.44-49.41-75.95-96.78-75.95s-86.97,32.51-96.73,75.95c-1.59-6.76-2.38-13.81-2.38-21.07,0-53.54,44.36-96.98,99.11-96.98s99.15,43.44,99.15,96.98Z"/>
  </g>
  <g class="cls-15">
    <path class="cls-5" d="M2099.14,2499.51c0,53.54-44.4,96.98-99.15,96.98s-99.11-43.44-99.11-96.98c0-8.1,1-15.94,2.92-23.45,10.72,42.23,49.7,73.53,96.19,73.53s85.51-31.3,96.23-73.53c1.92,7.51,2.92,15.36,2.92,23.45Z"/>
  </g>
  <path class="cls-5" d="M1999.99,2613.17c-63.87,0-115.83-50.99-115.83-113.66s51.96-113.66,115.83-113.66,115.83,50.99,115.83,113.66-51.96,113.66-115.83,113.66ZM1999.99,2419.24c-45.46,0-82.44,36.01-82.44,80.27s36.98,80.27,82.44,80.27,82.44-36.01,82.44-80.27-36.98-80.27-82.44-80.27Z"/>
  <ellipse class="cls-10" cx="3052.71" cy="2234.24" rx="66.86" ry="96.97" transform="translate(288.83 4817.24) rotate(-79.26)"/>
  <g class="cls-14">
    <path class="cls-8" d="M3148.31,2236.81c-14.81-17.28-38.98-31.05-67.81-36.51-52.62-9.97-100.86,11.35-107.75,47.62-1,5.18-1.09,10.35-.33,15.48-12.23-14.19-18.07-30.84-14.98-47.2,6.89-36.31,55.13-57.63,107.75-47.66,45.15,8.55,78.83,37.39,83.13,68.27Z"/>
  </g>
  <g class="cls-15">
    <path class="cls-5" d="M3147.97,2252.3c-6.89,36.31-55.09,57.63-107.71,47.66-42.19-8.05-74.41-33.72-81.96-62.26,14.9,13.85,36.18,24.62,60.89,29.29,52.62,9.97,100.86-11.35,107.75-47.62,1.38-7.18,1-14.44-.88-21.53,16.86,15.65,25.58,35.22,21.91,54.46Z"/>
  </g>
  <path class="cls-5" d="M3066.54,2319.15c-9.52,0-19.37-.91-29.39-2.81-62.62-11.88-104.83-57.24-96.1-103.27,8.73-46.03,64.6-72.79,127.24-60.91h0c62.61,11.87,104.82,57.23,96.1,103.26-7.33,38.66-47.93,63.73-97.84,63.73ZM3039.55,2182.82c-33.55,0-61.54,14.53-65.71,36.47-5.06,26.72,26.77,56.14,69.53,64.24,42.73,8.11,83.14-7.62,88.22-34.33,5.06-26.72-26.77-56.14-69.52-64.24h0c-7.64-1.45-15.2-2.14-22.51-2.14Z"/>
  <ellipse class="cls-10" cx="962.16" cy="2234.24" rx="96.97" ry="66.86" transform="translate(-399.42 218.38) rotate(-10.74)"/>
  <g class="cls-14">
    <path class="cls-8" d="M866.57,2236.81c14.81-17.28,38.98-31.05,67.81-36.51,52.62-9.97,100.86,11.35,107.75,47.62,1,5.18,1.09,10.35.33,15.48,12.23-14.19,18.07-30.84,14.98-47.2-6.89-36.31-55.13-57.63-107.75-47.66-45.15,8.55-78.83,37.39-83.13,68.27Z"/>
  </g>
  <g class="cls-15">
    <path class="cls-5" d="M866.9,2252.3c6.89,36.31,55.09,57.63,107.71,47.66,42.19-8.05,74.41-33.72,81.96-62.26-14.9,13.85-36.18,24.62-60.89,29.29-52.62,9.97-100.86-11.35-107.75-47.62-1.38-7.18-1-14.44.88-21.53-16.86,15.65-25.58,35.22-21.91,54.46Z"/>
  </g>
  <path class="cls-5" d="M948.81,2319.09c-18.62,0-36.45-3.5-51.96-10.35-25.52-11.28-41.98-30.22-46.36-53.32-4.39-23.1,4-46.75,23.62-66.59,18-18.2,43.74-31.23,72.47-36.68,62.62-11.85,118.51,14.88,127.24,60.91,8.73,46.03-33.48,91.39-96.1,103.27-9.71,1.84-19.42,2.75-28.92,2.75ZM975.32,2182.82c-7.31,0-14.86.69-22.51,2.14h0c-22.15,4.2-41.68,13.91-54.96,27.35-6.75,6.83-17.63,20.71-14.56,36.89,3.07,16.18,18.27,25.12,27.06,29,17.28,7.64,38.99,9.54,61.16,5.33,42.75-8.11,74.58-37.53,69.52-64.24-4.16-21.94-32.16-36.47-65.71-36.47ZM949.71,2168.56h.05-.05Z"/>
  <path class="cls-5" d="M1614.37,3036.13c-7.17,0-13.8-4.66-15.98-11.88-2.66-8.83,2.34-18.14,11.17-20.8,125.76-37.89,156.61-157.21,157.86-162.27,2.21-8.94,11.25-14.43,20.18-12.22,8.94,2.19,14.43,11.19,12.25,20.13-1.41,5.81-36.22,142.8-180.67,186.32-1.6.48-3.22.71-4.82.71Z"/>
  <path class="cls-5" d="M2387.51,3035.55c-1.59,0-3.21-.23-4.82-.71-144.39-43.51-179.84-179.97-181.28-185.75-2.23-8.95,3.22-18,12.18-20.23,8.89-2.22,17.97,3.21,20.21,12.14h0c1.28,5.04,32.71,123.96,158.52,161.87,8.83,2.66,13.83,11.97,11.17,20.8-2.18,7.22-8.8,11.88-15.98,11.88Z"/>
  <path class="cls-5" d="M2000.01,2353.33c-9.22,0-16.69-7.48-16.69-16.69v-168.29c0-9.22,7.47-16.69,16.69-16.69s16.69,7.48,16.69,16.69v168.29c0,9.22-7.47,16.69-16.69,16.69Z"/>
  <path class="cls-5" d="M2984.66,2575.78c-3.87,0-7.74-1.42-10.77-4.3-196.11-186.07-435.04-270.18-437.42-271-8.17-2.83-12.5-11.74-9.67-19.91,2.82-8.16,11.73-12.49,19.91-9.67,2.46.85,247.76,87.2,448.72,277.88,6.27,5.95,6.53,15.85.59,22.12-3.08,3.24-7.21,4.88-11.35,4.88Z"/>
  <path class="cls-5" d="M1007.06,2575.78c-4.15,0-8.28-1.64-11.36-4.88-5.94-6.27-5.69-16.18.59-22.12,200.96-190.67,446.27-277.03,448.73-277.88,8.17-2.82,17.08,1.5,19.9,9.66,2.83,8.17-1.49,17.08-9.66,19.91-2.39.83-241.54,85.15-437.44,271.01-3.03,2.87-6.9,4.3-10.76,4.3Z"/>
  <g class="cls-13">
    <path class="cls-8" d="M2633.22,1283.22c70.85,148.79,75.53,251.67,17.42,259.68-43.83,6.05-110-146.02-136.68-195.9-26.68-49.89-116.19-189.6-87.05-222.44,39.24-44.24,155.4,51.73,206.31,158.66Z"/>
  </g>
  <g class="cls-13">
    <path class="cls-8" d="M2751.75,1702.3c15.8,88.69.08,125.45-27.6,121.16-20.88-3.24-33.79-83.05-39.17-109.52-5.37-26.47-23.69-101.43-5.87-112.46,24.01-14.86,56.21,8.68,72.63,100.82Z"/>
  </g>
</svg>