<?xml version="1.0" encoding="UTF-8"?>
<svg id="Layer_1" data-name="Layer 1" xmlns="http://www.w3.org/2000/svg" viewBox="0 0 594.79 595.28">
  <defs>
    <style>
      .cls-1 {
        fill: #c64d9c;
      }

      .cls-1, .cls-2, .cls-3, .cls-4, .cls-5 {
        stroke-width: 0px;
      }

      .cls-2 {
        fill: #ae287e;
      }

      .cls-3 {
        fill: #fff;
      }

      .cls-4 {
        fill: #2d3a68;
      }

      .cls-5 {
        fill: #f9a820;
      }
    </style>
  </defs>
  <path class="cls-1" d="M187.23,237.97c.43-.6-.05-.85-.41-1.22-12.73-12.9-17.71-28.43-15.47-46.29,1.91-15.22,7.11-29.65,11.08-44.37,3.35-12.45,7.6-24.51,14.95-35.24,16.91-24.66,39.69-40.35,69.45-45.34,4.13-.69,4.19-.75,1.74-3.92-2.45-3.17-4.58-6.43-5.35-10.48-.66-3.48-.43-6.7,2.53-8.96,2.96-2.26,6.34-1.91,9.64-.59,2.9,1.16,5.06,3.31,7.24,5.45.61.6,1.1,1.86,2.14,1.34.83-.42.78-1.62.8-2.54.09-3.29.04-6.58.58-9.85,1.15-6.95,5.88-11.27,12.3-11.07,4.43.14,8.3,3.22,9.98,8.1.71,2.07,1.19,4.22,1.19,6.45,0,1.94.02,3.89.14,5.83.06,1.03-.26,2.48.91,2.89,1.06.37,1.67-.93,2.35-1.63,3.06-3.15,6.31-5.89,11.04-5.97,5.6-.09,8.57,3.16,8.08,8.77-.43,4.86-2.75,8.79-5.8,12.4-.38.45-.79.88-1.18,1.33-.94,1.08-1.16,1.66.71,2.02,8.54,1.61,16.98,3.6,25.12,6.75,15.47,5.98,27.72,16.33,38.56,28.5,9.47,10.63,16.05,22.94,20.18,36.53,4.15,13.63,8.39,27.24,11.69,41.11,2.16,9.08,3.16,18.25,1.86,27.6-1.76,12.67-7.79,23.15-16.21,32.46-5.54,5.51-11.65,10.24-18.76,13.57-1.88.88-1.73,2.18-1.02,3.74,3.47,7.62,6.01,15.57,8.22,23.64,5.21,18.98,9.56,38.04,8.04,57.99-.93,12.17-4.03,23.55-10.33,34.02-2.17,3.6-4.38,7.18-6.57,10.77-3.58,3.42-6.66,7.32-10.39,10.61-6.97,6.16-15.01,10.46-23.53,13.98-5.06,1.82-10.19,3.43-15.45,4.55-4.14.71-8.27,1.5-12.42,2.11-10.41,1.54-20.81,3.22-31.39,2.56-12.01-.75-23.88-2.55-35.69-4.78-5.13-1.27-10.27-2.52-15.24-4.36-7.09-3.09-14.16-6.19-20.31-11.04-4.38-3.46-8.4-7.27-11.99-11.53-.64-.76-1.13-1.69-2.11-2.12-.06-.73-.61-1.17-1-1.72-5.33-7.44-10.05-15.2-12.76-24.03-4.94-16.12-4.63-32.55-1.79-48.83,3.21-18.45,7.99-36.57,15.52-53.82.75-1.72.24-2.32-1.36-2.94-4.09-1.6-8.01-3.52-11.45-6.36-2.58-2.14-5.35-4.05-8.04-6.06ZM297.54,173.91c-6.12.31-10.46,3.56-14.22,7.7-4.57,5.05-7.2,11.37-10.87,17.02-1.11,1.71-1.19,3.35-.49,5.23,3.9,10.4,10.42,18.8,19.24,25.45,6.41,4.84,7.33,4.85,13.54-.05,8.7-6.86,15.57-15.12,19.13-25.83.55-1.67.41-3.03-.51-4.52-2.3-3.73-4.48-7.53-6.69-11.31-2.02-3.46-4.55-6.5-7.62-9.07-3.38-2.82-7.2-4.65-11.52-4.62ZM243.02,145.56c-1.43.13-2.88.12-4.28.4-8.26,1.65-13.92,6.54-16.49,14.46-2.81,8.65-1.25,16.79,4.75,23.73,7.2,8.33,18.77,9.12,27.26,2.11,7.71-6.37,10.7-18.2,7.05-27.98-3.04-8.15-9.57-12.67-18.28-12.73ZM353.36,145.63c-8.77,0-15.51,4.65-18.21,12.98-2.98,9.2-1.22,17.68,4.74,25.24,2.51,3.18,5.71,5.5,9.71,6.53,9.01,2.31,17.97-2.08,22.7-11.09,8.18-15.56-2-33.65-18.95-33.66Z"/>
  <path class="cls-2" d="M187.23,237.97c2.69,2.01,5.46,3.92,8.04,6.06,3.44,2.84,7.36,4.77,11.45,6.36,1.6.62,2.11,1.23,1.36,2.94-7.53,17.26-12.31,35.37-15.52,53.82-2.83,16.29-3.15,32.71,1.79,48.83,2.71,8.83,7.43,16.59,12.76,24.03.39.55.93.99,1,1.72-15.73,8.8-33.31,3.78-43.19-12.4-4.32-7.08-7.05-14.72-7.76-23.03-.04-.49-.2-.97-.34-1.69-1.06.66-1.94,1.25-2.85,1.78-4.22,2.47-7.51,1.69-10.14-2.43-2.07-3.25-3.22-6.86-3.81-10.61-3.12-19.7,1.66-38.04,10.15-55.58,8.04-16.6,20.12-29.68,35.94-39.23.36-.22.75-.38,1.12-.57Z"/>
  <path class="cls-2" d="M386.64,381.77c2.19-3.59,4.4-7.17,6.57-10.77,6.3-10.47,9.4-21.85,10.33-34.02,1.53-19.95-2.83-39.01-8.04-57.99-2.21-8.07-4.75-16.01-8.22-23.64-.71-1.57-.86-2.86,1.02-3.74,7.11-3.33,13.22-8.06,18.76-13.57,13.75,8.06,24.67,18.95,33,32.54,7.5,12.22,12.22,25.45,14.45,39.54,1.45,9.15,2.06,18.4-.79,27.49-.63,2-1.41,3.95-2.49,5.76-3.01,5.02-6.91,5.83-11.65,2.46-.54-.38-1.06-.79-1.93-1.43-.58,5.12-1.4,9.91-3.15,14.5-3.51,9.21-8.62,17.24-17.16,22.55-10.1,6.28-20.42,5.83-30.72.34Z"/>
  <path class="cls-5" d="M271.54,437.08c.95,1.51,1.05,3.17.93,4.89-.41,5.62-3.45,7.5-8.53,5.19-3.07-1.4-6.02-3.03-9.24-4.14-1.81-.62-3.27-.4-4.73.71-2.02,1.54-3.87,3.26-5.54,5.19-2.51,2.89-5.24,5.52-9.12,6.54-2.85.75-5.65.13-6.87-1.81-1.41-2.25-.57-4.4.72-6.39.63-.98,1.42-1.86,2.31-3.01-2.58.33-4.63,1.5-6.82,2.22-2.98.98-5.94,1.98-9.15,1.4-2.16-.39-4.26-1-4.89-3.39-.6-2.27,1.24-3.48,2.63-4.81.3-.29.61-.57.92-.86,6.57-4.21,13.98-6.23,21.41-8.2,6.8-1.8,6.83-1.78,6.87-8.77.03-4.73,0-9.46-.01-14.19,0-.17-.02-.33-.02-.5.04-.24.08-.48.12-.72,4.97,1.84,10.11,3.09,15.24,4.36-.03,5.89-.02,11.78-.12,17.67-.02,1.43.32,1.98,1.86,2.22,4.71.73,8.66,3.06,12.04,6.38Z"/>
  <path class="cls-5" d="M380.1,438.12c1.09.92,2.26,1.76,3.26,2.77,2.2,2.25,1.78,4.68-1.03,6.13-2.88,1.49-5.91,1.18-8.87.35-2.99-.84-5.92-1.93-8.87-2.91-.21-.03-.43-.07-.64-.11.07.18.15.36.22.55.86.83,1.5,1.82,2,2.89.97,2.09,1.4,4.19-.25,6.16-1.51,1.81-4.23,2.44-6.73,1.46-3.28-1.29-5.82-3.68-8.32-6.07-2.01-1.92-3.95-3.91-6.16-5.61-1.39-1.07-2.71-1.37-4.4-.54-2.71,1.34-5.53,2.47-8.3,3.7-2.16.96-4.51,2.41-6.61.5-2.28-2.07-3.12-4.94-2.42-8.08.05-.24.15-.48.23-.72.33-.43.71-.85.64-1.45,0,0-.07,0-.07,0,.39.03.51-.2.55-.53,0,0,.03.07.03.07,3.63-2.76,7.35-5.37,11.98-6.14,1.18-.2.94-.98.94-1.69,0-5.98-.02-11.96-.03-17.94,5.27-1.12,10.39-2.73,15.45-4.55,0,6.76.06,13.52-.04,20.27-.02,1.59.5,2.18,1.96,2.61,5.81,1.74,11.75,3.03,17.44,5.17,2.77,1.04,5.45,2.24,8.02,3.71Z"/>
  <path class="cls-5" d="M297.54,173.91c4.32-.03,8.13,1.79,11.52,4.62,3.07,2.56,5.6,5.6,7.62,9.07,2.21,3.78,4.39,7.58,6.69,11.31.92,1.49,1.06,2.86.51,4.52-3.56,10.71-10.42,18.97-19.13,25.83-6.22,4.9-7.13,4.89-13.54.05-8.82-6.65-15.34-15.05-19.24-25.45-.7-1.88-.63-3.51.49-5.23,3.67-5.64,6.3-11.97,10.87-17.02,3.75-4.15,8.1-7.4,14.22-7.7Z"/>
  <path class="cls-4" d="M243.02,145.56c8.71.05,15.24,4.57,18.28,12.73,3.65,9.78.66,21.61-7.05,27.98-8.48,7-20.05,6.22-27.26-2.11-6-6.94-7.56-15.08-4.75-23.73,2.57-7.93,8.23-12.81,16.49-14.46,1.4-.28,2.85-.27,4.28-.4ZM246.88,167.71c2.78.01,6.68-3.33,6.78-5.81.13-3.19-3.23-6.88-6.35-7-3.25-.12-6.59,3.15-6.72,6.59-.1,2.66,3.49,6.21,6.3,6.22Z"/>
  <path class="cls-4" d="M353.36,145.63c16.95.02,27.14,18.1,18.95,33.66-4.74,9.01-13.7,13.39-22.7,11.09-4-1.02-7.21-3.35-9.71-6.53-5.96-7.56-7.73-16.04-4.74-25.24,2.7-8.33,9.44-12.99,18.21-12.98ZM350.04,154.92c-3.22.1-6.32,3.13-6.25,6.12.07,3.47,3.34,6.7,6.62,6.53,2.9-.14,6.16-3.36,6.11-6.05-.05-3.22-3.47-6.7-6.49-6.61Z"/>
  <path class="cls-3" d="M246.88,167.71c-2.81-.01-6.4-3.57-6.3-6.22.14-3.44,3.47-6.71,6.72-6.59,3.13.12,6.48,3.81,6.35,7-.1,2.48-4,5.82-6.78,5.81Z"/>
  <path class="cls-3" d="M350.04,154.92c3.02-.09,6.43,3.39,6.49,6.61.04,2.68-3.21,5.9-6.11,6.05-3.28.16-6.55-3.06-6.62-6.53-.06-3,3.03-6.03,6.25-6.12Z"/>
</svg>