<?xml version="1.0" encoding="UTF-8"?>
<svg id="Layer_1" data-name="Layer 1" xmlns="http://www.w3.org/2000/svg" viewBox="0 0 594.79 595.28">
  <defs>
    <style>
      .cls-1 {
        fill: #244378;
      }

      .cls-1, .cls-2, .cls-3, .cls-4, .cls-5 {
        stroke-width: 0px;
      }

      .cls-2 {
        fill: #fff;
      }

      .cls-3 {
        fill: #4d8544;
      }

      .cls-4 {
        fill: #39b54a;
      }

      .cls-5 {
        fill: #f9a820;
      }
    </style>
  </defs>
  <path class="cls-4" d="M190.84,230.97c.41-.58-.05-.82-.4-1.18-12.31-12.47-17.13-27.5-14.96-44.77,1.85-14.72,6.88-28.67,10.71-42.91,3.24-12.04,7.35-23.71,14.46-34.09,16.35-23.85,38.39-39.03,67.17-43.85,3.99-.67,4.05-.72,1.68-3.79-2.37-3.06-4.43-6.22-5.17-10.13-.64-3.36-.42-6.48,2.44-8.66,2.87-2.19,6.14-1.84,9.32-.57,2.8,1.12,4.89,3.2,7,5.27.59.58,1.07,1.8,2.07,1.29.81-.41.75-1.57.77-2.46.08-3.18.04-6.36.56-9.53,1.11-6.72,5.69-10.9,11.9-10.7,4.29.14,8.02,3.11,9.65,7.83.69,2,1.15,4.08,1.15,6.23,0,1.88.02,3.76.13,5.64.06,1-.25,2.4.88,2.79,1.02.36,1.62-.9,2.27-1.58,2.96-3.05,6.11-5.7,10.67-5.77,5.42-.09,8.28,3.06,7.81,8.49-.41,4.7-2.66,8.5-5.61,12-.37.44-.77.85-1.14,1.28-.9,1.05-1.13,1.61.69,1.95,8.26,1.56,16.43,3.48,24.3,6.52,14.96,5.79,26.81,15.79,37.3,27.57,9.15,10.28,15.52,22.19,19.52,35.33,4.01,13.18,8.11,26.35,11.31,39.76,2.09,8.78,3.05,17.65,1.8,26.69-1.7,12.25-7.54,22.39-15.68,31.4-5.36,5.33-11.27,9.91-18.15,13.12-1.82.85-1.68,2.11-.99,3.62,3.36,7.37,5.81,15.06,7.95,22.86,5.04,18.36,9.25,36.79,7.77,56.09-.9,11.77-3.9,22.78-9.99,32.9-2.1,3.49-4.24,6.95-6.35,10.42-3.46,3.31-6.44,7.08-10.05,10.26-6.74,5.96-14.51,10.12-22.75,13.52-4.9,1.76-9.85,3.31-14.95,4.4-4,.69-8,1.45-12.02,2.04-10.07,1.49-20.13,3.12-30.36,2.48-11.61-.72-23.09-2.46-34.52-4.62-4.96-1.23-9.93-2.43-14.74-4.22-6.86-2.98-13.7-5.99-19.64-10.68-4.24-3.35-8.12-7.03-11.6-11.15-.62-.73-1.1-1.63-2.04-2.05-.06-.71-.59-1.13-.97-1.66-5.15-7.19-9.72-14.7-12.34-23.24-4.78-15.59-4.47-31.48-1.73-47.23,3.1-17.85,7.73-35.37,15.01-52.06.72-1.66.23-2.24-1.32-2.85-3.96-1.54-7.75-3.4-11.07-6.15-2.5-2.07-5.18-3.92-7.77-5.86ZM297.54,169.02c-5.92.3-10.12,3.44-13.75,7.45-4.42,4.88-6.96,11-10.51,16.46-1.08,1.66-1.15,3.24-.47,5.06,3.77,10.05,10.08,18.18,18.61,24.61,6.2,4.68,7.09,4.69,13.1-.05,8.42-6.64,15.06-14.62,18.5-24.98.54-1.61.4-2.93-.49-4.38-2.22-3.61-4.33-7.28-6.47-10.94-1.96-3.35-4.4-6.29-7.37-8.77-3.27-2.73-6.96-4.5-11.14-4.47ZM244.81,141.59c-1.38.12-2.79.12-4.14.39-7.99,1.59-13.46,6.32-15.95,13.99-2.72,8.37-1.21,16.24,4.59,22.95,6.97,8.06,18.16,8.82,26.36,2.05,7.46-6.16,10.34-17.6,6.82-27.06-2.94-7.89-9.25-12.25-17.68-12.31ZM351.52,141.66c-8.48,0-15,4.5-17.61,12.55-2.89,8.9-1.18,17.1,4.59,24.41,2.42,3.07,5.53,5.32,9.39,6.31,8.71,2.23,17.38-2.01,21.96-10.72,7.92-15.05-1.93-32.54-18.33-32.56Z"/>
  <path class="cls-3" d="M190.84,230.97c2.6,1.95,5.28,3.79,7.77,5.86,3.32,2.75,7.12,4.61,11.07,6.15,1.55.6,2.04,1.19,1.32,2.85-7.28,16.69-11.91,34.21-15.01,52.06-2.74,15.75-3.05,31.64,1.73,47.23,2.62,8.54,7.19,16.05,12.34,23.24.38.53.9.96.97,1.66-15.21,8.51-32.22,3.65-41.77-12-4.18-6.84-6.82-14.23-7.5-22.27-.04-.48-.19-.94-.33-1.63-1.02.64-1.88,1.2-2.76,1.72-4.08,2.39-7.26,1.63-9.81-2.35-2-3.14-3.11-6.63-3.69-10.27-3.02-19.06,1.6-36.79,9.82-53.76,7.78-16.06,19.45-28.71,34.76-37.95.35-.21.72-.37,1.09-.55Z"/>
  <path class="cls-3" d="M383.71,370.04c2.12-3.47,4.26-6.93,6.35-10.42,6.1-10.13,9.09-21.13,9.99-32.9,1.48-19.3-2.74-37.73-7.77-56.09-2.14-7.8-4.6-15.49-7.95-22.86-.69-1.51-.83-2.77.99-3.62,6.88-3.22,12.79-7.79,18.15-13.12,13.3,7.79,23.86,18.33,31.92,31.47,7.25,11.82,11.82,24.62,13.98,38.24,1.4,8.85,1.99,17.8-.76,26.59-.61,1.94-1.37,3.82-2.41,5.57-2.91,4.85-6.68,5.63-11.27,2.38-.52-.37-1.03-.76-1.87-1.38-.56,4.95-1.36,9.58-3.05,14.02-3.39,8.91-8.34,16.67-16.59,21.8-9.77,6.08-19.75,5.64-29.71.33Z"/>
  <path class="cls-5" d="M272.39,423.54c.92,1.46,1.02,3.07.89,4.73-.4,5.43-3.34,7.25-8.25,5.02-2.97-1.35-5.83-2.93-8.94-4-1.75-.6-3.16-.39-4.57.69-1.96,1.49-3.74,3.15-5.36,5.02-2.43,2.8-5.06,5.34-8.82,6.33-2.75.73-5.47.13-6.64-1.75-1.37-2.18-.55-4.25.7-6.18.61-.95,1.38-1.8,2.24-2.91-2.49.32-4.48,1.45-6.6,2.15-2.88.95-5.74,1.92-8.85,1.36-2.09-.38-4.12-.96-4.73-3.28-.58-2.2,1.2-3.37,2.54-4.66.29-.28.59-.55.89-.83,6.35-4.07,13.52-6.03,20.7-7.93,6.58-1.74,6.6-1.72,6.64-8.48.03-4.57,0-9.15-.01-13.72,0-.16-.02-.32-.02-.48.04-.23.07-.46.11-.7,4.8,1.78,9.77,2.99,14.74,4.22-.03,5.7-.02,11.39-.11,17.09-.02,1.38.31,1.92,1.8,2.15,4.55.71,8.38,2.96,11.64,6.17Z"/>
  <path class="cls-5" d="M377.39,424.55c1.06.89,2.19,1.7,3.15,2.68,2.13,2.18,1.72,4.52-.99,5.93-2.79,1.44-5.72,1.14-8.58.34-2.89-.81-5.72-1.86-8.58-2.81-.21-.03-.41-.07-.62-.1.07.18.14.35.21.53.83.8,1.45,1.76,1.93,2.8.94,2.02,1.35,4.05-.24,5.96-1.46,1.75-4.09,2.36-6.51,1.41-3.18-1.25-5.63-3.56-8.04-5.87-1.95-1.86-3.82-3.78-5.96-5.43-1.35-1.04-2.63-1.33-4.25-.52-2.62,1.3-5.35,2.39-8.03,3.58-2.09.93-4.36,2.33-6.39.48-2.2-2.01-3.02-4.78-2.34-7.82.05-.24.15-.46.22-.69.32-.42.68-.82.62-1.41,0,0-.06,0-.06,0,.38.03.49-.2.53-.52,0,0,.03.07.03.07,3.51-2.67,7.11-5.19,11.59-5.94,1.14-.19.91-.95.91-1.64,0-5.78-.01-11.57-.02-17.35,5.09-1.09,10.05-2.64,14.95-4.4,0,6.54.06,13.07-.04,19.61-.02,1.54.49,2.1,1.9,2.53,5.62,1.68,11.36,2.93,16.87,5,2.68,1.01,5.27,2.17,7.76,3.59Z"/>
  <path class="cls-5" d="M297.54,169.02c4.18-.03,7.86,1.74,11.14,4.47,2.97,2.48,5.42,5.42,7.37,8.77,2.14,3.66,4.25,7.33,6.47,10.94.89,1.44,1.03,2.76.49,4.38-3.44,10.36-10.08,18.34-18.5,24.98-6.01,4.74-6.9,4.72-13.1.05-8.53-6.43-14.84-14.56-18.61-24.61-.68-1.82-.61-3.4.47-5.06,3.55-5.46,6.09-11.58,10.51-16.46,3.63-4.01,7.83-7.15,13.75-7.45Z"/>
  <path class="cls-1" d="M244.81,141.59c8.43.05,14.74,4.42,17.68,12.31,3.53,9.46.64,20.9-6.82,27.06-8.2,6.77-19.39,6.01-26.36-2.05-5.8-6.71-7.31-14.58-4.59-22.95,2.49-7.67,7.96-12.39,15.95-13.99,1.35-.27,2.76-.27,4.14-.39ZM248.54,163.02c2.68.01,6.46-3.22,6.56-5.62.12-3.08-3.12-6.66-6.14-6.77-3.15-.12-6.37,3.04-6.5,6.37-.1,2.57,3.38,6,6.09,6.02Z"/>
  <path class="cls-1" d="M351.52,141.66c16.4.01,26.25,17.51,18.33,32.56-4.58,8.71-13.25,12.95-21.96,10.72-3.87-.99-6.97-3.24-9.39-6.31-5.76-7.31-7.47-15.51-4.59-24.41,2.61-8.06,9.13-12.56,17.61-12.55ZM348.31,150.65c-3.11.09-6.11,3.02-6.05,5.92.07,3.36,3.23,6.48,6.41,6.32,2.81-.14,5.96-3.25,5.91-5.85-.05-3.12-3.35-6.48-6.27-6.39Z"/>
  <path class="cls-2" d="M248.54,163.02c-2.71-.01-6.19-3.45-6.09-6.02.13-3.33,3.36-6.49,6.5-6.37,3.02.11,6.27,3.69,6.14,6.77-.1,2.4-3.87,5.63-6.56,5.62Z"/>
  <path class="cls-2" d="M348.31,150.65c2.92-.09,6.22,3.27,6.27,6.39.04,2.6-3.1,5.71-5.91,5.85-3.18.16-6.34-2.96-6.41-6.32-.06-2.9,2.93-5.83,6.05-5.92Z"/>
</svg>