<?xml version="1.0" encoding="UTF-8"?>
<svg id="Layer_1" data-name="Layer 1" xmlns="http://www.w3.org/2000/svg" viewBox="0 0 4000 4000">
  <defs>
    <style>
      .cls-1 {
        fill: #76c043;
      }

      .cls-1, .cls-2, .cls-3, .cls-4, .cls-5, .cls-6, .cls-7 {
        fill-rule: evenodd;
        stroke-width: 0px;
      }

      .cls-2 {
        fill: #62bb46;
      }

      .cls-3 {
        fill: #83c36e;
      }

      .cls-4 {
        fill: #199c2d;
      }

      .cls-5 {
        fill: #5ed17a;
      }

      .cls-6 {
        fill: #6fd98c;
      }

      .cls-7 {
        fill: #2ab541;
      }
    </style>
  </defs>
  <path class="cls-7" d="M1510,350.89C599.2,621.49,80.25,1579.21,350.88,2489.98c270.58,910.78,1228.3,1429.75,2139.08,1159.12,910.84-270.6,1429.8-1228.28,1159.17-2139.1C3378.49,599.2,2420.79,80.29,1510,350.89Z"/>
  <path class="cls-6" d="M734.79,1659.15c-19.83,67.44-90.59,106.06-158.05,86.22-67.46-19.77-106.07-90.59-86.29-158.03,62.93-211.54,169.63-406.25,309.12-574.17,141.24-170.09,316.06-312.47,512.88-416.61,62.23-32.75,139.27-8.9,172.03,53.38,32.77,62.18,8.88,139.22-53.33,172-167.86,88.77-316.45,209.66-436.16,353.79-117.41,141.33-207.21,305.33-260.2,483.42h0ZM1779.7,692.85c-68.56,15.44-136.69-27.65-152.08-96.21-15.43-68.62,27.66-136.67,96.22-152.1,33.74-7.59,69.13-14.32,106.16-20.12,35.19-5.52,70.76-10.01,106.6-13.26,69.93-6.35,131.79,45.25,138.09,115.21,6.33,69.93-45.25,131.76-115.18,138.07-30.52,2.84-60.78,6.6-90.64,11.26-28.79,4.59-58.56,10.3-89.17,17.16Z"/>
  <path class="cls-4" d="M3423.66,1684.79c0,904.4-733.18,1637.56-1637.53,1637.56-626.31,0-1170.42-351.62-1445.88-868.17,199.2,729.75,866.85,1266.2,1659.77,1266.2,950.15,0,1720.39-770.22,1720.39-1720.38,0-561.48-269-1060.17-685.19-1374.14,242.3,285.49,388.44,655.13,388.44,1058.93Z"/>
  <path class="cls-1" d="M456.55,1240.27c-37.24,75.64-69.01,153.95-94.85,234.47l390.85-104.75c214.21-57.43,391.47,28.76,502.78,60.62,111.35,31.82,315.5,90.24,447.69,123.31,132.22,33.17,301.33,11.77,496.3-40.46,128.76-34.47,836.38-226.44,1302.61-352.97-135.49-242.92-325.54-444.36-549.39-593.05-575.59,155.8-1502.79,406.73-1708.77,461.93l-787.21,210.91h0ZM289.14,2182.93l474.27-127.13c246.19-65.91,455.25,189.89,842.11,86.26,290.72-77.94,1487.18-401.56,2063.84-557.59,37.47,150.06,53.9,300.86,51.05,449.07-571.68,154.75-1647.51,445.89-1810.59,489.54-223.79,59.95-142.57,260.94-497.45,356.03l-751.55,201.37c-40.55-50.22-78.51-102.9-113.5-158.03l507.83-136.07c284.54-76.24,346-192.09,368.08-263.11,22.11-71.01-23.74-101.53-100.3-118.78-76.61-17.16-291.22-57.27-465.5-10.59l-495.2,132.65c-3.92-12.12-7.7-24.27-11.35-36.58-30.34-102.1-50.7-204.85-61.74-307.05h0ZM1014.08,3409.78c75.69,52.87,155.37,99.65,238.39,139.7,43.97-55.13,91.87-115.08,129.73-161.96,95.15-118.01,215.78-153.79,324.49-182.94,108.72-29.11,234.89-69.8,471.48-133.16,236.54-63.39,977.23-280.84,1195.79-270.89,41.95,1.88,90.72,6.41,142.09,12.5,45.95-85.68,84.7-175.22,115.66-267.7-36.34-5.04-66.36-8.73-85.59-10.23-108.53-8.61-142.65-33.77-420.84,40.82-278.16,74.49-1242.2,327.87-1446.81,382.65-204.62,54.81-265.75,95.19-395.49,212.21-78.45,70.76-191.7,170.92-268.91,239Z"/>
  <path class="cls-2" d="M3351.15,1201.4l150.78-40.91-5.98-10.62-8.53-14.86-1.28-2.2c-107-183-246.84-344.42-411.43-476.28l-5.33-4.21-6.6-5.2c-9.01-7.11-18.11-14.06-27.31-21.01,141.21,166.48,249.69,361.57,315.67,575.28h0ZM3423.66,1684.79c0,154.53-21.43,303.95-61.43,445.72l357.73-96.81c.22-11.19.44-22.45.44-33.7,0-69.39-4.13-137.82-12.1-205.01l-.83-6.41-.88-7.02c-8.48-65.66-20.86-131.44-37.24-197.1l-246.05,66.55c.21,11.26.35,22.51.35,33.77h0ZM3167.23,2564.92c-73.4,114.86-160.73,219.96-259.6,312.91,196.37-46.68,375.96-81.44,466.33-77.3,41.95,1.88,90.72,6.41,142.09,12.5,45.95-85.68,84.7-175.22,115.66-267.7-36.34-5.04-66.36-8.73-85.59-10.23-102.8-8.2-138.92-31.15-378.89,29.82h0ZM1483.96,3294.48c-89.27-16.71-176.04-40.56-259.58-71.08-69.93,62.47-150.8,133.96-210.3,186.38,75.69,52.87,155.37,99.65,238.39,139.7,43.97-55.13,91.87-115.08,129.73-161.96,31.57-39.19,65.96-69.29,101.75-93.05h0ZM851.37,3029.43c-61.88-43.08-120.63-90.31-175.86-141.33l-127.89,34.25c34.92,54.88,72.87,107.65,113.59,158.07l190.16-50.99h0ZM378.62,2522.16c-13.01-21.81-25.5-43.88-37.5-66.3,3.12,11.35,6.38,22.77,9.76,34.12,3.65,12.31,7.43,24.46,11.35,36.58l16.39-4.4Z"/>
  <path class="cls-5" d="M548.82,1424.61c35.65-84.79,78.57-166.14,127.87-243.37l415.53-111.29c-34.17,33.64-66.66,68.91-97.23,105.77-45.92,55.26-87.64,114.06-124.58,175.76-37.82,1.88-77.17,7.59-117.86,18.49l-203.73,54.63Z"/>
  <path class="cls-3" d="M2393.91,2170.53c138.17,0,250.89-112.69,250.89-250.92s-112.72-250.86-250.89-250.86-250.92,112.69-250.92,250.86,112.71,250.92,250.92,250.92Z"/>
  <path class="cls-3" d="M1964.49,1985.74c61.66,0,111.96-50.29,111.96-111.96s-50.31-111.96-111.96-111.96-111.97,50.32-111.97,111.96,50.27,111.96,111.97,111.96Z"/>
  <path class="cls-3" d="M2744.4,1786.28c27.74,0,50.35-22.64,50.35-50.42s-22.61-50.35-50.35-50.35-50.35,22.67-50.35,50.35,22.61,50.42,50.35,50.42Z"/>
  <path class="cls-3" d="M2231.03,3217.53c105.85,0,192.17-86.35,192.17-192.19s-86.32-192.19-192.17-192.19-192.17,86.32-192.17,192.19,86.32,192.19,192.17,192.19Z"/>
  <path class="cls-7" d="M2231.03,3129.2c57.21,0,103.92-46.59,103.92-103.86s-46.72-103.86-103.92-103.86-103.87,46.65-103.87,103.86,46.67,103.86,103.87,103.86Z"/>
  <path class="cls-7" d="M2532.27,2806.95c45.38,0,82.37-37.02,82.37-82.37s-36.99-82.3-82.37-82.3-82.33,36.99-82.33,82.3,36.99,82.37,82.33,82.37Z"/>
  <path class="cls-7" d="M2376.15,2936.6c20.49,0,37.24-16.74,37.24-37.31s-16.76-37.18-37.24-37.18-37.24,16.71-37.24,37.18,16.71,37.31,37.24,37.31Z"/>
  <path class="cls-7" d="M1977.81,2366.55c65.18,0,118.3-53.13,118.3-118.31s-53.12-118.24-118.3-118.24-118.29,53.13-118.29,118.24,53.17,118.31,118.29,118.31Z"/>
  <path class="cls-7" d="M2948.1,1516.45c144.15,0,261.75-117.6,261.75-261.77s-117.6-261.73-261.75-261.73-261.75,117.6-261.75,261.73,117.55,261.77,261.75,261.77Z"/>
  <path class="cls-7" d="M2482.3,1358.83c59.68,0,108.35-48.63,108.35-108.35s-48.68-108.36-108.35-108.36-108.36,48.69-108.36,108.36,48.64,108.35,108.36,108.35Z"/>
  <path class="cls-7" d="M2157.24,1394c38,0,68.96-30.96,68.96-68.94s-30.96-68.94-68.96-68.94-69.01,30.93-69.01,68.94,31.01,68.94,69.01,68.94Z"/>
  <path class="cls-7" d="M3097.28,955.93c22.99,0,41.82-18.75,41.82-41.77s-18.83-41.84-41.82-41.84-41.82,18.78-41.82,41.84,18.77,41.77,41.82,41.77Z"/>
  <path class="cls-3" d="M2948.1,1399.9c79.94,0,145.2-65.21,145.2-145.21s-65.26-145.19-145.2-145.19-145.22,65.24-145.22,145.19,65.23,145.21,145.22,145.21Z"/>
</svg>