<?xml version="1.0" encoding="UTF-8"?>
<svg id="Layer_1" data-name="Layer 1" xmlns="http://www.w3.org/2000/svg" viewBox="0 0 4000 4000">
  <defs>
    <style>
      .cls-1, .cls-2, .cls-3, .cls-4 {
        stroke-width: 0px;
      }

      .cls-1, .cls-2, .cls-4 {
        fill-rule: evenodd;
      }

      .cls-1, .cls-3 {
        fill: #ea5f4c;
      }

      .cls-2 {
        fill: #f29f6d;
      }

      .cls-4 {
        fill: #d04146;
      }
    </style>
  </defs>
  <path class="cls-1" d="M1510,358.25C599.2,628.85,80.25,1586.54,350.88,2497.38c270.58,910.75,1228.3,1429.75,2139.08,1159.12,910.84-270.63,1429.8-1228.35,1159.17-2139.13C3378.49,606.6,2420.79,87.62,1510,358.25Z"/>
  <path class="cls-4" d="M3423.66,1692.15c0,904.34-733.18,1637.5-1637.53,1637.5-626.31,0-1170.42-351.53-1445.88-868.08,199.2,729.75,866.85,1266.16,1659.77,1266.16,950.15,0,1720.39-770.25,1720.39-1720.34,0-561.51-269-1060.17-685.19-1374.2,242.3,285.52,388.44,655.17,388.44,1058.96Z"/>
  <path class="cls-2" d="M734.79,1666.51c-19.83,67.44-90.59,106.09-158.05,86.26-67.46-19.83-106.07-90.62-86.29-158.07,62.93-211.48,169.63-406.25,309.12-574.17,141.24-170.09,316.06-312.47,512.88-416.61,62.23-32.75,139.27-8.87,172.03,53.35,32.77,62.25,8.88,139.26-53.33,172.04-167.86,88.81-316.45,209.69-436.16,353.76-117.41,141.36-207.21,305.36-260.2,483.45h0ZM1779.7,700.25c-68.56,15.4-136.69-27.68-152.08-96.24-15.43-68.56,27.66-136.7,96.22-152.1,33.74-7.56,69.13-14.29,106.16-20.12,35.19-5.55,70.76-9.98,106.6-13.27,69.93-6.31,131.79,45.25,138.09,115.21,6.33,69.93-45.25,131.79-115.18,138.11-30.52,2.78-60.78,6.57-90.64,11.29-28.79,4.53-58.56,10.27-89.17,17.13Z"/>
  <path class="cls-4" d="M1741.04,3563.26c144.2,0,261.75-117.6,261.75-261.73s-117.55-261.73-261.75-261.73-261.69,117.57-261.69,261.73,117.59,261.73,261.69,261.73Z"/>
  <path class="cls-4" d="M2144.96,3195.43c85.09,0,154.49-69.33,154.49-154.43s-69.4-154.43-154.49-154.43-154.43,69.39-154.43,154.43,69.39,154.43,154.43,154.43Z"/>
  <path class="cls-4" d="M1383.66,3192.98c30.12,0,54.7-24.62,54.7-54.69s-24.59-54.75-54.7-54.75-54.75,24.59-54.75,54.75,24.58,54.69,54.75,54.69Z"/>
  <path class="cls-4" d="M3330.17,2121.74c166.41,0,302.15-135.75,302.15-302.17s-135.75-302.2-302.15-302.2-302.17,135.75-302.17,302.2,135.71,302.17,302.17,302.17Z"/>
  <path class="cls-1" d="M3330.17,1999.71c99.2,0,180.12-80.93,180.12-180.13s-80.91-180.13-180.12-180.13-180.13,80.9-180.13,180.13,80.91,180.13,180.13,180.13Z"/>
  <path class="cls-4" d="M3074.04,2435.93c74.41,0,135.09-60.72,135.09-135.14s-60.68-135.08-135.09-135.08-135.14,60.68-135.14,135.08,60.73,135.14,135.14,135.14Z"/>
  <path class="cls-4" d="M3370.97,1453.72c48.82,0,88.66-39.86,88.66-88.68s-39.84-88.65-88.66-88.65-88.7,39.83-88.7,88.65,39.84,88.68,88.7,88.68Z"/>
  <path class="cls-1" d="M2869.79,3238.07c161.91,0,293.92-132.02,293.92-293.91s-132.01-293.91-293.92-293.91-293.89,132.02-293.89,293.91,132.01,293.91,293.89,293.91Z"/>
  <circle class="cls-3" cx="2592.73" cy="3285.9" r="84.44"/>
  <path class="cls-1" d="M3220.39,2782.11c23.23,0,42.22-18.94,42.22-42.19s-18.99-42.22-42.22-42.22-42.2,18.94-42.2,42.22,18.94,42.19,42.2,42.19Z"/>
  <path class="cls-4" d="M2998.06,2645.5c30.12,0,54.7-24.65,54.7-54.75s-24.59-54.72-54.7-54.72-54.75,24.58-54.75,54.72,24.58,54.75,54.75,54.75Z"/>
  <path class="cls-2" d="M658.05,2191.39c30.12,0,54.7-24.52,54.7-54.69s-24.59-54.72-54.7-54.72-54.7,24.58-54.7,54.72,24.58,54.69,54.7,54.69Z"/>
  <path class="cls-2" d="M1078.19,2837.84c181.19,0,328.99-147.77,328.99-328.95s-147.8-329.02-328.99-329.02-328.97,147.8-328.97,329.02,147.8,328.95,328.97,328.95Z"/>
  <path class="cls-1" d="M1078.19,2739.98c127.31,0,231.11-103.82,231.11-231.09s-103.79-231.12-231.11-231.12-231.09,103.83-231.09,231.12,103.83,231.09,231.09,231.09Z"/>
  <path class="cls-2" d="M2757.64,1420.47c67.51,0,122.51-55.04,122.51-122.48s-55-122.51-122.51-122.51-122.47,55.04-122.47,122.51,55.01,122.48,122.47,122.48Z"/>
  <path class="cls-2" d="M1717.35,1709.98c67.46,0,122.51-55.04,122.51-122.51s-55.06-122.51-122.51-122.51-122.51,55.04-122.51,122.51,55.06,122.51,122.51,122.51Z"/>
  <path class="cls-2" d="M1731.41,925.38c33.74,0,61.27-27.52,61.27-61.22s-27.53-61.29-61.27-61.29-61.26,27.55-61.26,61.29,27.53,61.22,61.26,61.22Z"/>
  <path class="cls-2" d="M2202.89,2173.88c92.22,0,167.41-75.19,167.41-167.41s-75.19-167.35-167.41-167.35-167.38,75.19-167.38,167.35,75.21,167.41,167.38,167.41Z"/>
  <path class="cls-2" d="M2949.73,572.95c-55.37,103.7-164.65,174.3-290.42,174.3-181.71,0-328.99-147.29-328.99-328.99,0-33.61,5.05-66.04,14.43-96.62,216.58,44.52,421.99,130.3,604.97,251.31Z"/>
  <path class="cls-1" d="M2866.31,521.14c-37.87,75.99-116.33,128.25-207,128.25-127.61,0-231.09-103.47-231.09-231.12,0-25.96,4.26-50.89,12.18-74.17,149.55,39.8,292.82,99.52,425.91,177.04Z"/>
</svg>