<?xml version="1.0" encoding="UTF-8"?>
<svg id="Layer_1" data-name="Layer 1" xmlns="http://www.w3.org/2000/svg" viewBox="0 0 4000 4000">
  <defs>
    <style>
      .cls-1 {
        fill: #faf86b;
      }

      .cls-1, .cls-2, .cls-3, .cls-4, .cls-5, .cls-6, .cls-7 {
        fill-rule: evenodd;
        stroke-width: 0px;
      }

      .cls-2 {
        fill: #bda421;
      }

      .cls-3 {
        fill: #fffd7c;
      }

      .cls-4 {
        fill: #ece258;
      }

      .cls-5 {
        fill: #dad14f;
      }

      .cls-6 {
        fill: #a38b06;
      }

      .cls-7 {
        fill: #c0ae3c;
      }
    </style>
  </defs>
  <path class="cls-1" d="M1510.01,350.87C599.23,621.5,80.27,1579.19,350.86,2490c270.63,910.78,1228.33,1429.75,2139.13,1159.12,910.78-270.6,1429.75-1228.32,1159.15-2139.1C3378.5,599.21,2420.79,80.27,1510.01,350.87Z"/>
  <path class="cls-2" d="M2589.41,2468.38c65.08,0,118.21-53.09,118.21-118.21s-53.13-118.18-118.21-118.18-118.21,53.09-118.21,118.18,53.06,118.21,118.21,118.21Z"/>
  <path class="cls-4" d="M3423.69,1684.8c0,904.37-733.2,1637.53-1637.6,1637.53-626.26,0-1170.42-351.59-1445.89-868.11,199.27,729.72,866.9,1266.17,1659.79,1266.17,950.16,0,1720.38-770.25,1720.38-1720.38,0-561.51-269.01-1060.17-685.14-1374.2,242.25,285.52,388.46,655.2,388.46,1058.99Z"/>
  <path class="cls-5" d="M2328.06,310.95c-147.71,170.41-439.37,454.85-841.34,599.84-328.69,118.59-610.13,55.04-796.76-26.05,208.58-245.47,488.26-435.3,820.06-533.86,275.16-81.76,554.53-91.36,818.05-39.92h0ZM3713.65,1845.1c-10.2-111.51-31.38-223.63-64.51-335.08-71.84-241.77-192.09-455.9-347-635.01-1.4,2.2-2.84,4.37-4.14,6.76-122.35,214.89-948.25,695.85-1513.78,863.87-565.53,168.02,254.85-75.73-680.75,202.26-499.04,148.25-723.18,133.8-823.76,88.04,3.21,150.42,26.26,302.87,71.16,454.05,2.38,8,4.93,15.88,7.43,23.82,270.8,28.44,726.08-104.34,1093.06-213.36,457.3-135.87,600.46-178.41,1399.92-415.94,422.96-125.67,697.51-95.6,862.37-39.41h0ZM3513.01,2818.82c-157.59-31.57-395.44-40.85-710.39,52.71-617.92,183.64-1008.91,299.77-1351.04,401.43-130.39,38.74-235.36,124.05-315.35,214.73-210.68-122.26-395.82-289.16-539.89-492.22l3064.13-544.87c-34.98,128.28-84.5,251.88-147.45,368.21Z"/>
  <path class="cls-7" d="M3423.69,1684.8c0,37.66-1.44,75.07-3.92,112.12,122.61,2.78,219.35,22.8,293.75,48.15-2.23-24.71-4.98-49.27-8.23-73.66-11.74-87.12-30.32-174.49-56.15-261.38-33.1-111.42-76.47-216.96-128.8-315.91-60.87-114.57-134.28-221.46-218.43-318.78-1.34,2.1-2.65,4.18-3.92,6.44-11.07,19.45-28,41.1-49.9,64.54,112.31,221.87,175.6,472.77,175.6,738.49h0ZM3185.9,2535.02c-65.88,108.23-144.04,208.13-232.37,297.96,240.98-51.28,428.09-40.5,559.47-14.16,62.95-116.33,112.47-239.92,147.45-368.21l-474.55,84.4h0ZM1423.82,3282.06c-244.72-55.29-468.69-165.34-658.32-316.64l-168.73,29.97c97.77,137.6,215.23,260.21,348.29,363.65l6.65,5.1,14.81,11.26c54.35,40.79,111.03,78.29,169.71,112.31,74.23-84.18,169.96-163.68,287.6-205.65h0ZM374.55,2515.28c-11.51-19.58-22.74-39.35-33.47-59.44,3.17,11.42,6.38,22.77,9.77,34.15,2.38,8,4.93,15.88,7.43,23.82,5.32.54,10.78,1.02,16.26,1.47Z"/>
  <path class="cls-2" d="M3016.45,612.06l-701.85,208.51c-321.2,95.44-260.33,172.36-745.62,316.52-417.11,123.95-803.12,78.64-1052.47-8.07-49.83,84.88-92.35,173.95-127.09,266.23,258.66,73.34,719.23,145.19,1257.4-34.34,833.08-277.9,479.03-267.7,1034.04-432.59l524.74-155.93c-59.28-58.1-122.51-111.67-189.16-160.33h0ZM3348.4,3068.54c-445.79-18.46-1177.39,52.42-1854.83,575.73,313.55,96.88,658.24,105.33,996.41,4.85,352.55-104.75,646.3-312.5,858.42-580.58h0ZM3686.03,2343.12c-9.31,45.6-20.41,90.75-33.32,135.27l-1656.67,492.22-1119.42,332.59c-175.14-150.7-321.41-337.98-425.77-554.69,114.78-35.87,359.63-111.32,549.57-162.12,256.95-68.78,496.92,61.29,811.58,58.99,314.65-2.33,373.61-149.01,525.72-148.63,152.14.39,385.11,132.56,674.87,46.46l673.44-200.09h0ZM3668.75,1581.96c-92-37.47-240.05-55.16-470.54,13.3-485.23,144.17-911.13,270.7-1337.08,397.26-425.91,126.56-851.82,253.09-1026.36,304.97-120.2,35.68-355.5,65.98-525.3,22.29-7.51-39.51-13.53-79.05-18.21-118.49,125.38,30.26,332.51,37.28,656.92-59.12,638.89-189.8,1403.41-416.97,1745.53-518.62,259.6-77.14,622.86-305.33,789.45-495.79,69.1,117.69,125.35,245.53,165.98,382.27,7.14,23.95,13.55,47.93,19.61,71.94Z"/>
  <path class="cls-6" d="M3155.96,787.16l49.36-14.67c-35.91-35.27-73.34-69.01-112.21-101.05l-.19-.13-.16-.13-2.8-2.3-9.03-7.37-3.03-2.42c-13.93-11.16-28.03-22.13-42.32-32.88,43.27,51.05,83.48,104.78,120.38,160.94h0ZM3216.29,2482.7c-29.88,53.38-62.53,104.97-97.99,154.46l534.41-158.77c12.91-44.51,24.01-89.67,33.32-135.27l-469.74,139.57h0ZM2514.82,3151.54c-132.97,66.16-276.24,114.76-426.75,142.89-197.18,84.47-398.1,198.12-594.5,349.84,53.33,16.45,107.6,30.39,162.53,41.65l4.45.89c6.81,1.4,13.63,2.71,20.49,4.02,103.35,19.39,209.98,29.56,318.96,29.56,87.37,0,173.21-6.57,257.14-19.16l12.53-1.91c6.18-.99,12.34-2.04,18.56-3.1,67.28-11.51,134.63-27.13,201.76-47.1,105.74-31.41,206.18-72.1,300.7-120.92,9.63-4.94,19.23-9.98,28.73-15.14l1.4-.77c204.43-111.13,383.8-262.69,527.49-443.75-221.3-9.19-512.98,3.73-833.48,83h0ZM1189.6,3210.21c-261.96-102.52-491.12-270.5-667.2-483.93-27.22,8.42-51.4,15.91-71.54,22.23,12.4,25.77,25.41,51.12,38.97,76.02l5.45,9.89,6.46,11.58c98.07,173.34,225.34,327.9,375.16,457.14l312.71-92.92h0ZM3485.07,1130.94l-1.91-3.19c-32.91,37.69-73.6,76.82-119.61,115.97,27.68,99.14,46.24,202.04,54.75,307.81,110.68-9.25,191.93,6.6,250.45,30.42-6.06-24.01-12.47-47.99-19.61-71.94-38.65-130.04-91.39-251.94-155.84-364.86l-.51-.8-3.16-5.55-.35-.57-4.21-7.3Z"/>
  <path class="cls-3" d="M734.8,1659.16c-19.83,67.44-90.63,106.06-158.08,86.22-67.46-19.8-106.07-90.59-86.24-158.07,62.88-211.48,169.56-406.22,309.05-574.17,141.26-170.09,316.06-312.47,512.95-416.58,62.23-32.78,139.27-8.9,172.04,53.35,32.76,62.24,8.88,139.25-53.4,172.03-167.86,88.78-316.45,209.66-436.11,353.76-117.41,141.36-207.26,305.33-260.21,483.45h0ZM1779.72,692.87c-68.59,15.4-136.67-27.68-152.1-96.24-15.4-68.56,27.66-136.67,96.25-152.1,33.74-7.56,69.13-14.29,106.17-20.12,35.17-5.52,70.76-9.98,106.55-13.26,69.96-6.28,131.84,45.28,138.12,115.21,6.34,69.93-45.25,131.79-115.18,138.11-30.51,2.8-60.76,6.57-90.62,11.29-28.81,4.53-58.58,10.27-89.19,17.12Z"/>
  <path class="cls-2" d="M1305.83,1565c66.63,0,121.03-54.37,121.03-121.02s-54.4-121.04-121.03-121.04-121.01,54.37-121.01,121.04,54.35,121.02,121.01,121.02Z"/>
  <path class="cls-2" d="M1543,1593.09c26.83,0,48.64-21.84,48.64-48.63s-21.81-48.63-48.64-48.63-48.65,21.81-48.65,48.63,21.86,48.63,48.65,48.63Z"/>
  <path class="cls-2" d="M1928.79,1079.44c42.04,0,76.31-34.28,76.31-76.28s-34.27-76.31-76.31-76.31-76.24,34.28-76.24,76.31,34.25,76.28,76.24,76.28Z"/>
  <path class="cls-5" d="M2615.85,1536.01c79.18,0,143.78-64.6,143.78-143.85s-64.6-143.81-143.78-143.81-143.85,64.6-143.85,143.81,64.6,143.85,143.85,143.85Z"/>
  <path class="cls-5" d="M2060.87,3218.89c61.32,0,111.38-50.03,111.38-111.39s-50.06-111.38-111.38-111.38-111.4,50.03-111.4,111.38,50.05,111.39,111.4,111.39Z"/>
  <path class="cls-5" d="M1634.12,2450.1c92.7,0,168.3-75.57,168.3-168.27s-75.6-168.27-168.3-168.27-168.25,75.57-168.25,168.27,75.59,168.27,168.25,168.27Z"/>
  <path class="cls-5" d="M1386,2514.58c37.12,0,67.43-30.32,67.43-67.44s-30.31-67.38-67.43-67.38-67.41,30.26-67.41,67.38,30.3,67.44,67.41,67.44Z"/>
  <path class="cls-5" d="M1874.93,2285.31c18.56,0,33.72-15.15,33.72-33.71s-15.16-33.7-33.72-33.7-33.69,15.15-33.69,33.7,15.13,33.71,33.69,33.71Z"/>
</svg>