<?xml version="1.0" encoding="UTF-8"?>
<svg id="Layer_1" data-name="Layer 1" xmlns="http://www.w3.org/2000/svg" viewBox="0 0 594.79 595.28">
  <defs>
    <style>
      .cls-1 {
        fill: #da5f95;
      }

      .cls-1, .cls-2, .cls-3, .cls-4 {
        stroke: #bc4d9d;
        stroke-miterlimit: 10;
        stroke-width: .5px;
      }

      .cls-2 {
        fill: #e0668e;
      }

      .cls-3 {
        fill: #ca509d;
      }

      .cls-4 {
        fill: #bc4d9c;
      }
    </style>
  </defs>
  <path class="cls-2" d="M508.56,451.54c-1.67,2.2-1.68,4.87-2.9,7.2-.09-.04-.17-.1-.26-.11-.09,0-.26.04-.26.07-.11.73-.34,1.4-.99,1.95-4.17,3.48-8.06,7.22-13.11,9.89-7.16,3.79-14.32,7.59-21.48,11.38-.38.19-.76.38-1.15.56-1.33.2-2.49.68-3.48,1.45-.41.16-.81.33-1.22.49-.95.33-1.9.67-2.86,1-.39.15-.78.3-1.17.45-.58.18-1.17.36-1.75.54-.2.15-.39.29-.59.44v-.04c-.84.21-1.7.35-2.48.64-7.25,2.62-14.65,4.88-22.22,6.76-6.52,1.62-13.07,3.18-19.61,4.76-2.25-.07-4.37.5-6.52.91-13.49,2.6-27.13,4.44-40.84,6.02-3.17.16-6.37.11-9.5.5-12.14,1.53-24.41,1.36-36.62,1.78-11.4.38-22.82.07-34.24.08-1.13,0-2.34-.27-3.37.39-2.73-.53-5.49-.76-8.28-.99-4.05-.33-8.13-.08-12.14-.48-12.91-1.3-25.93-1.61-38.8-3.27-11.13-1.43-22.31-2.62-33.42-4.11-8.85-1.19-17.42-3.43-26.11-5.19-11.73-2.38-22.73-6.5-33.99-10-4.98-1.55-9.56-3.86-14.04-6.28-9.2-4.97-19.51-8.7-26.08-16.57-1.51-1.75-.88-4.25-2.91-5.82-1.16-5.38-.13-10.45,3.02-15.23.04-.06.01-.16.02-.24,1.2-1.21,2.4-2.42,3.6-3.64,1.88,3.54,3.72,7.07,6.82,10.07,5.37,5.2,12.32,8.57,19.38,11.72,14.83,6.63,30.83,10.64,47.02,14.22,11.04,2.44,22.26,3.89,33.6,4.72,6.13.45,12.29,1.13,18.48.22,2.22-.33,3.94-.86,4.03-3.04.09-2.21-1.64-3.38-3.83-3.67-4.97-.65-9.75-2.09-14.71-2.58-14.96-1.46-29.73-3.77-44.32-6.89-16.56-3.54-32.55-8.21-46.75-16.45-8.82-5.12-15.69-11.62-20.5-19.7-1.21-2.03.22-4.2-1.06-6.12.51-6.56,4.37-11.77,9.62-16.35,9.5-8.27,21.43-13.35,33.88-17.67,17.25-5.98,35.28-9.69,53.57-12.59,18.75-2.97,37.66-4.9,56.71-5.97,7.61-.43,15.21-.74,22.83-1,4.02-.14,8.04-.4,12.07-.31.74.54,1.64.39,2.5.4,15.46.19,30.93-.29,46.4.39,6.16.27,12.34.48,18.51.71,5.34.19,10.73.69,16.08,1.16,3.25.29,6.62,1.41,9.97.27,15.49,1.44,30.89,3.39,46.1,6.27,16.55,3.13,32.83,7,48.24,13.06,10.97,4.31,21.38,9.35,29.08,17.48,3.52,3.72,6.05,7.85,6.61,12.67-1.08,1.82-.37,3.87-1.53,5.8-5.74,9.55-14.56,16.54-25,22.41-14.94,8.4-31.76,12.86-48.95,16.41-11.6,2.39-23.37,4.21-35.08,6.21-3.62.62-7.25,1.17-10.1,3.31-1.1.82-2.74,1.6-2.2,3.15.56,1.6,2.33,2.05,4.06,2.37.65.12,1.35.06,2.02.09,4.65.17,9.22-.53,13.83-.87,13.04-.96,25.65-3.64,38.23-6.42,13.63-3.01,26.28-7.92,38.43-13.91,11.06-5.45,20.25-12.12,24.73-22.53,1.14,1.11,2.28,2.23,3.42,3.34,2.49,4.54,4.19,9.22,3.54,14.3ZM451,431.93c5.19-1.19,10.29-2.56,14.69-5.28,5.17-1.38,9.57-3.78,13.2-7.14,3.67-3.39,3.56-6.47-.13-9.85-5.8-5.31-13.13-8.72-20.73-11.78-8.04-3.24-16.57-5.34-25.15-7.32-12.28-2.84-24.65-5.45-37.22-7.09-12.07-1.58-24.26-2.62-36.43-3.66-12.58-1.06-25.17-1.97-37.78-2.17-15.36-.24-30.73-.21-46.11.19-14.48.37-28.94.74-43.33,2.12-9.66.93-19.34,1.86-28.93,3.18-14.09,1.94-27.97,4.79-41.69,8.11-11.71,2.84-23.11,6.44-33.87,11.31-3.83,1.74-7.53,3.64-10.52,6.35-3.22,2.92-3.56,5.49-.67,8.66,3.57,3.92,8.42,6.59,13.53,8.93,3.9,1.82,7.8,3.63,12.17,4.56.4.21.78.48,1.21.62,10.49,3.43,21.44,5.36,32.48,7.01,6.24,1.49,12.67,2.19,19.06,2.91,12.04,1.35,24.13,2.32,36.25,3.16,14.34.99,28.69,1.84,43.05,2.09,13.02.23,26.04.74,39.1.34,13.61-.42,27.25-.45,40.83-1.31,13.17-.83,26.31-2.04,39.44-3.29,8.43-.81,16.82-1.92,25-3.92,3.57-.06,7.02-.76,10.47-1.42,7.48-1.43,14.98-2.78,22.08-5.32ZM283.92,471.29c5.39-.26,10.8-.17,16.2-.3,13.6-.34,27.12-1.27,40.62-2.59,5.74-.56,11.48-1.15,17.01-2.71,2-.56,2.55-1.67,2.28-3.13-.36-1.93-2.39-1.9-4.09-1.94-7.44-.18-14.83.58-22.25.9-12.05.52-24.12.89-36.18,1.02-9.46.1-18.93.3-28.4-.35-4.9-.34-9.86-.12-14.79-.07-2.76.02-5.21,1.65-5.37,3.64-.19,2.52,2.06,3.2,4.42,3.67.75.15,1.49.34,2.26.43,9.38,1.14,18.8,1.71,28.28,1.44ZM287.54,485.99c-2.98.04-5.95-.21-8.95.29-2.05.34-2.78,1.25-2.98,2.74-.21,1.65.87,2.66,2.65,3.01,2.53.49,5.09,1,7.67,1.12,11.55.56,23.1,1.19,34.66,1.41,12.42.24,24.88.74,37.23-.95,2.89-.4,5.99-.53,8.42-2.23,2.44-1.71,2.15-3.21-.72-4.29-3.11-1.17-6.5-.95-9.69-1.05-15.05-.47-30.13.16-45.2-.51-7.69-.35-15.41-.14-23.1.45Z"/>
  <path class="cls-1" d="M281.97,508.65c1.03-.66,2.24-.39,3.37-.39,11.41-.02,22.84.3,34.24-.08,12.21-.41,24.47-.24,36.62-1.78,3.13-.39,6.33-.35,9.5-.5-.18.79-.37,1.58-.53,2.37-.18.95.02,1.92,1.13,2.27,1.87.59,3.67,1.51,5.72,1.57,11.1.29,22.18-.03,33.2-1.24,6.19-.68,12.33-1.72,18.48-2.64,6.21-.93,12.4-1.92,18.6-2.89.81-.05,1.69.14,2.35-.47.82.04,1.58-.14,2.29-.48,1.05-.11,2.11-.14,3.13-.33,10.97-2.07,21.93-4.18,32.9-6.24,1.33-.25,2.9-.88,3.63.84,0,0,.02,0,.02,0-.12.05-.24.1-.37.15l.13.16c-2.63,3.57-5.81,6.77-9.23,9.82-.09,0-.19,0-.28-.01.06.05.12.1.18.15,0,0-.21.13-.21.13-.45-.1-.61.03-.47.41,0,0-.08.12-.09.11-.79-.18-.8.28-.83.71,0,0,.04-.06.04-.06-.22.19-.43.39-.65.58-.13.14-.27.28-.4.43-3.1.1-5.58,1.68-8.38,2.49-14.71,4.25-29.79,7.23-45.04,9.67-7.28,1.16-14.55,2.39-21.87,3.29-7.23.89-14.51,1.49-21.77,2.18-8.62.81-17.25,1.57-25.89,1.7-16.25.24-32.5.07-48.76.08-3.51,0-6.89.61-10.16,1.66-1.67.53-2.74,1.55-2.95,3.04-.22,1.53,1.24,2.01,2.53,2.59,1.55.69,3.2,1.23,4.91,1.4,7.75.76,15.51,1.49,23.32,1.47,8.49-.02,16.98.06,25.49-.33,8.75-.4,17.5-.81,26.22-1.56,12.53-1.09,25.01-2.49,37.43-4.34,12.04-1.8,24.02-3.8,35.87-6.34,3.81-.82,7.38-2.49,11.44-2.46h0c-2.13,2.17-4.55,4.08-7.08,5.92-3.52,2.55-7.54,4.58-10.82,7.37-1.83.95-3.67,1.9-5.5,2.85-1-.06-1.93-.03-1.92,1.12,0,0-.09-.04-.09-.04-1.53-.35-3.07-.3-4.58.02-12.33,2.57-24.75,4.75-37.23,6.78-15.14,2.47-30.4,4.01-45.73,5.1-10.46.74-20.96,1.33-31.44,1.42-11.78.1-23.55.23-35.27,1.16-3.47.28-6.93.34-10.39.5-7.68.35-15.39.98-23.06.73-8.82-.29-17.68-.49-26.46-1.74-8.24-1.17-16.54-2.05-24.69-3.68-3.72-.75-7.34-1.87-11.19-2.1,0,0,.07.06.07.06-.63-.92-1.5-1.43-2.83-1.15-7.4-2.88-14.64-6.01-21.54-9.67.59-.68-.56-.61-.61-1.01,1.25.03,2.48.07,3.73.27,8.13,1.27,16.36,1.97,24.59,2.63,7.28.58,14.58.91,21.85,1.54,13.62,1.18,27.24,2.17,40.95,1.86,2.81-.06,5.56-.53,8.1-1.61,1.27-.54,3.08-1.13,2.75-2.46-.33-1.35-1.61-2.41-3.55-2.82-6.16-1.31-12.42-2.22-18.72-2.77-10.43-.91-20.8-2.24-31.11-3.72-11.74-1.69-23.51-3.31-35.17-5.44-14.91-2.73-29.67-5.73-43.7-10.88-1.21-.44-2.39-.65-3.58,0-.11-.04-.15-.11-.11-.2.19-.69-.4-.66-.92-.69-.16-.13-.31-.26-.47-.38-.21-.2-.42-.4-.64-.6,0,0,.07.06.07.06-.23-.18-.45-.35-.68-.53-.55-.47-1.11-.93-1.66-1.4-.15-.52.13-1.37-1.13-1.03-4.02-3.66-7.79-7.49-10.97-11.7.17-.16.34-.31.51-.47.79.01,1.58.02,2.37.04.99.31,1.95.79,2.97.9,5.55.6,10.96,1.81,16.41,2.8,11.1,2.02,21.49,5.99,32.48,8.31,18.7,3.95,37.72,6.5,56.92,7.78,10.34.69,20.74,1.01,31.17.66,10.81-.36,21.49-1.39,32.1-3.04,1.5-.23,2.97-.71,3.89-1.9,1.7-2.19.85-3.93-2.93-5.93Z"/>
  <path class="cls-3" d="M281.97,508.65c3.78,2,4.63,3.74,2.93,5.93-.92,1.19-2.39,1.66-3.89,1.9-10.61,1.65-21.29,2.68-32.1,3.04-10.43.35-20.82.03-31.17-.66-19.21-1.28-38.22-3.83-56.92-7.78-10.98-2.32-21.38-6.29-32.48-8.31-5.45-.99-10.86-2.2-16.41-2.8-1.02-.11-1.98-.59-2.97-.9-1.45-2.24-3.25-4.43-1.27-7.1.08-.11.06-.4-.04-.46-2.8-1.82-.59-2.78.91-3.92.54-.41.49-1.09.2-1.6-.35-.61-1.02-.37-1.46-.08-2.88,1.95-4.5-.15-5.29-1.66-1.25-2.37-2.83-4.01-5.85-4.61-2.87-5.82-5.67-11.65-7.06-17.88,6.57,7.86,16.88,11.6,26.08,16.57,4.48,2.42,9.06,4.73,14.04,6.28,11.26,3.5,22.26,7.62,33.99,10,8.7,1.77,17.27,4,26.11,5.19,11.12,1.49,22.29,2.68,33.42,4.11,12.87,1.65,25.89,1.97,38.8,3.27,4.01.4,8.09.16,12.14.48,2.79.23,5.55.46,8.28.99Z"/>
  <path class="cls-3" d="M456.81,525.76c-4.07-.02-7.63,1.65-11.44,2.46-11.86,2.54-23.83,4.54-35.87,6.34-12.42,1.85-24.89,3.25-37.43,4.34-8.72.76-17.46,1.16-26.22,1.56-8.51.39-17,.31-25.49.33-7.81.02-15.57-.71-23.32-1.47-1.71-.17-3.36-.71-4.91-1.4-1.29-.58-2.75-1.06-2.53-2.59.22-1.49,1.28-2.51,2.95-3.04,3.27-1.04,6.65-1.65,10.16-1.66,16.25,0,32.51.16,48.76-.08,8.65-.13,17.27-.89,25.89-1.7,7.26-.68,14.55-1.28,21.77-2.18,7.32-.9,14.59-2.13,21.87-3.29,15.25-2.44,30.34-5.42,45.04-9.67,2.8-.81,5.29-2.38,8.38-2.49-2.89,2.8-5.78,5.6-9.26,8.96,6.49-1.68,12.26-3.14,18-4.68,4.73-1.27,9.32-2.84,13.91-4.44,4.71-1.64,7.68-.92,9.49,1.95,2.28,3.62,1.52,6.75-2.52,9.13-7.16,4.23-15.29,6.74-23.53,9.04-13.56,3.8-27.37,6.63-41.62,7.84,3.28-2.79,7.3-4.82,10.82-7.37,2.53-1.84,4.95-3.75,7.08-5.91.04-.06.07-.12.11-.18-.04.06-.08.12-.12.18Z"/>
  <path class="cls-3" d="M181.36,551.14c3.85.23,7.48,1.36,11.19,2.1,8.15,1.64,16.45,2.52,24.69,3.68,8.78,1.24,17.63,1.45,26.46,1.74,7.66.25,15.38-.38,23.06-.73,3.46-.16,6.92-.22,10.39-.5,11.72-.93,23.49-1.06,35.27-1.16,10.49-.09,20.99-.68,31.44-1.42,15.33-1.09,30.58-2.63,45.73-5.1,12.48-2.03,24.9-4.21,37.23-6.78,1.51-.32,3.05-.37,4.58-.02-15.47,8.05-31.97,14.12-49.51,18.24-21.18,4.97-42.8,7.64-64.76,8.41-11,.38-22.02.85-33.02.78-7.78-.05-15.57-.82-23.33-1.46-22.76-1.88-44.95-5.92-66.4-12.66-4.51-1.42-8.86-3.1-13.02-5.12Z"/>
  <path class="cls-3" d="M122.59,515.97c1.19-.65,2.37-.45,3.58,0,14.02,5.16,28.79,8.15,43.7,10.88,11.66,2.14,23.43,3.76,35.17,5.44,10.31,1.48,20.68,2.81,31.11,3.72,6.3.55,12.56,1.46,18.72,2.77,1.94.41,3.22,1.47,3.55,2.82.32,1.33-1.48,1.92-2.75,2.46-2.53,1.08-5.29,1.55-8.1,1.61-13.71.31-27.33-.68-40.95-1.86-7.27-.63-14.58-.96-21.85-1.54-8.23-.66-16.46-1.36-24.59-2.63-1.26-.2-2.48-.23-3.73-.27-.16,0-.33.01-.49,0-.19-.16-.38-.32-.57-.49-.57-.02-1.18.03-1.56-.44-2.49-3.06-5.84-5.34-9.27-7.64-2.46-1.65-5.5-2.66-7.55-4.69-1.9-1.88-3.86-3.51-6.91-3.96-.94-.14-1.77-.63-2.12-1.48-2.06-1.36-3.63-3.1-5.38-4.7Z"/>
  <path class="cls-3" d="M91,419.33c1.27,1.92-.15,4.09,1.06,6.12,4.8,8.07,11.67,14.57,20.5,19.7,14.2,8.24,30.19,12.91,46.75,16.45,14.59,3.12,29.35,5.43,44.32,6.89,4.97.49,9.75,1.93,14.71,2.58,2.18.29,3.92,1.45,3.83,3.67-.09,2.17-1.81,2.71-4.03,3.04-6.19.92-12.35.23-18.48-.22-11.34-.83-22.56-2.28-33.6-4.72-16.19-3.58-32.18-7.59-47.02-14.22-7.06-3.15-14.01-6.53-19.38-11.72-3.1-3-4.94-6.53-6.82-10.07-2.05-5.73-3.32-11.51-1.83-17.5Z"/>
  <path class="cls-3" d="M501.6,433.9c-4.48,10.41-13.67,17.07-24.73,22.53-12.15,5.99-24.8,10.89-38.43,13.91-12.58,2.78-25.19,5.47-38.23,6.42-4.61.34-9.18,1.04-13.83.87-.68-.02-1.37.03-2.02-.09-1.73-.32-3.5-.78-4.06-2.37-.54-1.55,1.1-2.33,2.2-3.15,2.85-2.15,6.48-2.69,10.1-3.31,11.71-2,23.48-3.82,35.08-6.21,17.2-3.55,34.01-8.01,48.95-16.41,10.44-5.87,19.26-12.86,25-22.41,1.16-1.93.46-3.99,1.53-5.8.94,5.45.02,10.77-1.58,16.04Z"/>
  <path class="cls-4" d="M486.59,498.65c-.73-1.72-2.29-1.09-3.63-.84-10.97,2.07-21.93,4.17-32.9,6.24-1.02.19-2.09.23-3.13.33.6-1.93,1.9-2.71,4.24-1.86.65.24,1.31.39,1.81-.2.3-.35.33-.74.09-1.14-.6-.97-4.78-1.41-5.51-.53-.53.63-1.34,1.14-1.42.15-.09-1.14-.29-1.95-1.61-2.15-1.51-.23-1.74,1.1-2.43,1.78-1.87,1.84-4.56,2.59-6.73,1.72-.52-.21-1.12-.41-1.03-1.01.09-.57.61-.41,1.1-.41,1.33.01.84-.56.38-1.02-.74-.75-1.64-.77-2.58-.29-2.49,1.28-4.3,1.15-5.11-1.55-.18-.59-.83-1.32-1.7-.97-1.77.72-3.77.27-5.52.89-2.52.89-5.11,1.36-7.86,1.17,6.54-1.58,13.08-3.14,19.61-4.76,7.57-1.88,14.97-4.14,22.22-6.76.79-.28,1.64-.43,2.47-.63.18.96,1.05,1.22,1.92.97,2.71-.78,5.52-1.26,8.25-1.91,5.39-1.28,10.77-2.66,16.19-3.88,4.77-1.07,9.56-2.03,14.07-3.76-.14.52-.21.99.74.69,1.58-.51,3.15-1.03,4.72-1.54-.42,1.31-2.58,1.01-3.18,2.44,1.45.28,2.73.92,4.21.66,4.7-.83,8.96.91,13.39,1.6,2.04.32,2.34,2.88,4.02,3.08,1.79.21,3.24-1.97,5.52-1.55-9.71,5.01-20.39,8.18-30.99,11.53-3.25,1.03-6.98,1.23-9.61,3.5ZM451.84,499.14c.15.05.32.17.43.14.1-.03.14-.22.2-.35-.14-.05-.32-.18-.43-.14-.11.04-.14.22-.2.35Z"/>
  <path class="cls-4" d="M127.97,520.67c.35.85,1.19,1.34,2.12,1.48,3.05.46,5.01,2.08,6.91,3.96,2.05,2.03,5.09,3.04,7.55,4.69,3.43,2.3,6.78,4.58,9.27,7.64.38.47.99.41,1.56.44.19.16.38.32.57.49.16,0,.33,0,.49,0,.05.4,1.21.33.61,1.01-13.29-.94-26.22-3.36-38.9-6.73-9.8-2.6-19.4-5.64-27.77-10.83-4.26-2.65-4.79-7.65-1.07-10.78,1.94-1.63,4.4-1.69,6.71-.74,9.28,3.8,19.43,5.61,28.92,8.93.91.32,1.87.98,3,.44Z"/>
  <path class="cls-4" d="M89.23,440.46c0,.08.02.17-.02.24-3.14,4.78-4.17,9.86-3.02,15.23-8.78-4.44-18.11-8.24-25.07-14.84-1.54-1.46-2.91-2.99-3.86-4.77-.8-1.49-.74-2.92.09-4.4,3.01-5.37,7.24-6.39,12.92-2.85,6.24,3.9,12.13,8.2,18.96,11.4Z"/>
  <path class="cls-4" d="M508.56,451.54c.66-5.08-1.05-9.76-3.54-14.3,6.48-2.62,11.99-6.37,17.32-10.34,4.49-3.35,9.46-3.16,13.51.48,1.75,1.57,2.16,3.25,1.22,5.31-.99,2.18-2.58,4.03-4.59,5.49-7.28,5.31-15.3,9.73-23.93,13.37Z"/>
  <path class="cls-3" d="M67.7,484.88c-3.52-1.59-6.49-3.74-9.01-6.31-2.83-2.9-2.69-5.54.28-8.73,2.17-2.33,5.41-3.05,9-1.32,8.57,4.11,17.38,7.77,26.47,10.96.07.56.82,1.38-.52,1.5-4.47.37-8.38,2.48-12.79,2.86-1.53.13-1.95,1.38-3.49,1.4-2.59.03-5.17.46-7.75.72,0,0,.06.04.06.04-.52-.69-.7-1.88-2.25-1.13Z"/>
  <path class="cls-3" d="M527.18,483.62c-2.28-.43-3.73,1.76-5.52,1.55-1.67-.2-1.98-2.76-4.02-3.08-4.43-.69-8.69-2.43-13.39-1.6-1.48.26-2.75-.38-4.21-.66.6-1.43,2.76-1.13,3.18-2.44,7.12-2.47,13.99-5.25,20.37-8.99,6.39-3.74,12.23-2.03,14.19,3.54.84,2.4.2,4.48-1.78,6.26-1.91,1.72-4.07,3.2-6.61,4.25-.34-.22-.41-.05-.42.21,0,0,.02-.02.02-.02-.97-.14-1.6.15-1.8.99h0Z"/>
  <path class="cls-4" d="M69.89,485.96c2.58-.26,5.16-.69,7.75-.72,1.54-.02,1.96-1.27,3.49-1.4,4.4-.38,8.32-2.49,12.79-2.86,1.34-.11.59-.93.52-1.5.57.05,1.14.1,1.71.15,3.02.6,4.6,2.25,5.85,4.61.79,1.5,2.41,3.61,5.29,1.66.44-.3,1.11-.54,1.46.08.29.51.34,1.19-.2,1.6-1.5,1.14-3.71,2.09-.91,3.92.1.07.12.35.04.46-1.97,2.67-.18,4.87,1.27,7.1-.79-.01-1.58-.02-2.37-.04-.33-.33-.52-.16-.67.14-4.96-2.08-10.35-3.23-15.48-4.97-7.05-2.4-14.14-4.71-20.55-8.22Z"/>
  <path class="cls-3" d="M497.77,478.24c-4.51,1.74-9.3,2.7-14.07,3.76-5.42,1.21-10.8,2.59-16.19,3.88-2.73.65-5.53,1.13-8.25,1.91-.87.25-1.74,0-1.92-.97,0,0,.01.04.01.04.2-.15.39-.29.59-.44.58-.18,1.17-.36,1.75-.54.85.69,1.04.18,1.17-.45.95-.33,1.9-.67,2.86-1,.49-.02.94-.11,1.22-.49.99-.78,2.15-1.25,3.48-1.45,1,.69,1.05.03,1.15-.56,7.16-3.79,14.31-7.59,21.48-11.38,5.05-2.67,8.93-6.41,13.11-9.89.65-.55.89-1.22.99-1.95,0-.03.17-.08.26-.07.09,0,.17.07.26.11-1.31,6.1-3.84,11.87-6.92,17.48-.58.2-.65.59-.57,1.05,0,0,.06-.05.06-.05-.64.19-.72.56-.46,1.03h0Z"/>
  <path class="cls-3" d="M373.15,368.38c-3.35,1.14-6.72.02-9.97-.27-5.35-.47-10.74-.97-16.08-1.16-6.16-.22-12.35-.43-18.51-.71-15.47-.68-30.94-.2-46.4-.39-.85-.01-1.76.15-2.5-.4,4.14-.07,8.28-.15,12.42-.22,11.35-.2,22.69-.05,34.03.23.55.48,1.12.46,1.71.06,5.46.26,10.92.64,16.39.75,9.69.21,19.28,1.28,28.9,2.11Z"/>
  <path class="cls-3" d="M178.61,550.05c1.33-.28,2.19.24,2.83,1.15-.94-.38-1.88-.77-2.83-1.15Z"/>
  <path class="cls-4" d="M67.7,484.88c1.56-.75,1.73.44,2.25,1.13-.96-.08-1.58-.65-2.25-1.13Z"/>
  <path class="cls-4" d="M527.19,483.61c.2-.84.83-1.13,1.8-.99-.5.46-1.04.86-1.8.99Z"/>
  <path class="cls-3" d="M117.05,511.2c1.26-.34.98.51,1.13,1.03-.38-.34-.75-.69-1.13-1.03Z"/>
  <path class="cls-3" d="M431.49,543.01c0-1.15.93-1.18,1.92-1.12-.64.37-1.28.75-1.92,1.12Z"/>
  <path class="cls-2" d="M327.86,365.52c-.59.4-1.16.42-1.71-.06.57.02,1.14.04,1.71.06Z"/>
  <path class="cls-3" d="M475.45,510.28c.04-.43.04-.89.83-.71-.28.24-.55.47-.83.71Z"/>
  <path class="cls-4" d="M497.77,478.25c-.26-.47-.18-.84.46-1.03-.15.34-.3.69-.46,1.03Z"/>
  <path class="cls-3" d="M105.92,499.16c.15-.29.34-.47.67-.14-.17.16-.34.31-.51.47-.14-.08-.2-.19-.16-.33Z"/>
  <path class="cls-3" d="M120.45,514.1c.21.2.42.4.64.6-.21-.2-.42-.4-.64-.6Z"/>
  <path class="cls-4" d="M418.45,438.66c-8.18,2.01-16.57,3.12-25,3.93-13.12,1.26-26.27,2.46-39.44,3.29-13.58.86-27.22.89-40.83,1.31-13.06.4-26.08-.11-39.1-.34-14.37-.25-28.71-1.1-43.05-2.09-12.12-.84-24.21-1.81-36.25-3.16-6.39-.72-12.82-1.41-19.06-2.91-2.4-3.17-1.85-6.35,1.86-8.78,7.73-5.07,16.94-7.65,26.09-10.05,17.83-4.68,36.37-6.24,54.85-7.74,10.06-.82,20.22-.81,30.35-1.06,16.71-.41,33.38.34,50.03,1.47,4.12.28,8.25.58,12.34,1.1,7.79.99,15.6,1.96,23.33,3.28,14.39,2.45,28.58,5.42,40.84,12.74,4.36,2.6,5.29,4.96,3.04,9.01Z"/>
  <path class="cls-3" d="M129.86,426.5c-5.11-2.34-9.96-5.01-13.53-8.93-2.89-3.17-2.55-5.74.67-8.66,2.99-2.71,6.69-4.61,10.52-6.35,10.76-4.88,22.16-8.47,33.87-11.31,13.71-3.32,27.59-6.17,41.69-8.11,9.59-1.32,19.27-2.25,28.93-3.18,14.39-1.39,28.85-1.75,43.33-2.12,15.38-.4,30.75-.43,46.11-.19,12.61.2,25.21,1.1,37.78,2.17,12.18,1.03,24.36,2.08,36.43,3.66,12.57,1.64,24.94,4.26,37.22,7.09,8.57,1.98,17.11,4.08,25.15,7.32,7.6,3.06,14.93,6.47,20.73,11.78,3.7,3.38,3.81,6.46.13,9.85-3.64,3.36-8.04,5.75-13.21,7.14-.32-.18-.71-.31-.94-.55-4.68-4.92-10.14-9.13-16.74-12.14-6.26-2.85-12.7-5.38-19.42-7.46-11.6-3.6-23.52-6.12-35.63-8.13-6.05-1.01-12.16-1.58-18.26-2.29-5.14-.6-10.23-1.43-15.46-1.64-5.47-.22-10.96-.56-16.42-.99-9.68-.77-19.37-1.53-29.08-1.78-21.63-.55-43.22.37-64.8,1.79-8.83.58-17.65,1.36-26.42,2.22-10.78,1.06-21.45,2.91-32.02,5.15-16.87,3.57-33.68,7.23-48.56,15.16-4.97,2.65-10.44,5.09-12.09,10.51Z"/>
  <path class="cls-4" d="M129.86,426.5c1.65-5.41,7.11-7.86,12.09-10.51,14.88-7.93,31.68-11.6,48.56-15.16,10.57-2.24,21.24-4.09,32.02-5.15,8.77-.86,17.59-1.64,26.42-2.22,21.58-1.42,43.16-2.34,64.8-1.79,9.71.25,19.4,1.01,29.08,1.78,5.46.43,10.94.77,16.42.99,5.23.21,10.32,1.04,15.46,1.64,6.09.71,12.21,1.28,18.26,2.29,12.11,2.02,24.03,4.54,35.63,8.13,6.71,2.08,13.16,4.61,19.42,7.46,6.6,3.01,12.07,7.22,16.74,12.14.23.24.62.37.94.55-4.4,2.72-9.5,4.09-14.69,5.28.16-1.56-1.44-2.08-2.55-2.67-7.6-4.05-15.62-7.44-24.16-9.86-14.42-4.09-28.88-8.06-44.01-10.07-7.12-.95-14.23-1.94-21.39-2.64-6.3-.62-12.67-.86-18.93-1.66-7.73-.98-15.52-1.42-23.27-1.65-13.69-.4-27.39-.02-41.09.74-8.83.5-17.73.13-26.57,1.05-6.39.66-12.87.81-19.23,1.64-10.64,1.38-21.22,3.13-31.82,4.72-19.49,2.93-37.63,8.79-54.39,17.62-.76.4-2.21.62-1.54,1.91-4.37-.93-8.27-2.74-12.17-4.56Z"/>
  <path class="cls-3" d="M142.03,431.06c-.67-1.3.79-1.51,1.54-1.91,16.76-8.82,34.9-14.68,54.39-17.62,10.6-1.6,21.18-3.34,31.82-4.72,6.36-.83,12.84-.97,19.23-1.64,8.84-.92,17.74-.55,26.57-1.05,13.7-.77,27.4-1.15,41.09-.74,7.75.23,15.55.67,23.27,1.65,6.27.79,12.63,1.04,18.93,1.66,7.16.7,14.27,1.7,21.39,2.64,15.12,2.01,29.59,5.98,44.01,10.07,8.54,2.42,16.56,5.81,24.16,9.86,1.11.59,2.71,1.11,2.55,2.67-7.1,2.54-14.61,3.89-22.08,5.32-3.45.66-6.9,1.35-10.47,1.42,2.25-4.05,1.32-6.41-3.04-9.01-12.26-7.32-26.45-10.29-40.84-12.74-7.72-1.32-15.53-2.29-23.33-3.28-4.08-.52-8.22-.82-12.34-1.1-16.65-1.12-33.32-1.88-50.03-1.47-10.12.25-20.28.24-30.35,1.06-18.48,1.5-37.03,3.05-54.85,7.74-9.16,2.41-18.37,4.98-26.09,10.05-3.71,2.43-4.26,5.61-1.86,8.78-11.04-1.64-21.99-3.58-32.48-7.01-.43-.14-.81-.41-1.21-.62Z"/>
  <path class="cls-3" d="M283.92,471.29c-9.48.27-18.9-.3-28.28-1.44-.76-.09-1.51-.28-2.26-.43-2.37-.47-4.62-1.15-4.42-3.67.15-1.99,2.61-3.61,5.37-3.64,4.93-.04,9.89-.26,14.79.07,9.47.65,18.94.46,28.4.35,12.06-.13,24.13-.51,36.18-1.02,7.41-.32,14.8-1.08,22.25-.9,1.7.04,3.72,0,4.09,1.94.27,1.46-.28,2.56-2.28,3.13-5.53,1.56-11.27,2.15-17.01,2.71-13.5,1.32-27.02,2.25-40.62,2.59-5.4.13-10.81.05-16.2.3Z"/>
  <path class="cls-3" d="M287.54,485.99c7.69-.59,15.41-.8,23.1-.45,15.07.68,30.14.04,45.2.51,3.2.1,6.58-.12,9.69,1.05,2.87,1.08,3.16,2.58.72,4.29-2.44,1.7-5.53,1.84-8.42,2.23-12.35,1.69-24.81,1.2-37.23.95-11.56-.23-23.11-.85-34.66-1.41-2.58-.13-5.14-.64-7.67-1.12-1.78-.34-2.86-1.36-2.65-3.01.19-1.49.93-2.4,2.98-2.74,3-.5,5.97-.25,8.95-.29Z"/>
  <path class="cls-3" d="M413.05,498.97c2.74.19,5.34-.28,7.86-1.17,1.75-.62,3.74-.17,5.52-.89.86-.35,1.52.38,1.7.97.81,2.7,2.62,2.83,5.11,1.55.94-.48,1.84-.46,2.58.29.46.46.95,1.03-.38,1.02-.49,0-1.02-.16-1.1.41-.09.6.51.8,1.03,1.01,2.17.87,4.86.12,6.73-1.72.69-.68.92-2.01,2.43-1.78,1.32.2,1.52,1.01,1.61,2.15.08.98.89.48,1.42-.15.74-.89,4.92-.44,5.51.53.24.39.21.79-.09,1.14-.51.59-1.17.44-1.81.2-2.34-.86-3.64-.07-4.24,1.86-.71.35-1.47.52-2.29.48-1.03-.69-1.89-.83-2.35.47-6.2.96-12.39,1.95-18.6,2.89-6.15.92-12.29,1.96-18.48,2.64-11.01,1.21-22.1,1.53-33.2,1.24-2.05-.05-3.85-.97-5.72-1.57-1.12-.35-1.31-1.33-1.13-2.27.15-.79.35-1.58.53-2.37,13.7-1.57,27.35-3.41,40.84-6.01,2.15-.41,4.27-.98,6.52-.91Z"/>
  <path class="cls-4" d="M460.86,485.44c-.13.63-.32,1.14-1.17.45.39-.15.78-.3,1.17-.45Z"/>
  <path class="cls-4" d="M469.57,481.93c-.1.6-.15,1.25-1.15.56.38-.19.76-.38,1.15-.56Z"/>
  <path class="cls-4" d="M464.94,483.94c-.28.38-.73.48-1.22.49.41-.16.81-.33,1.22-.49Z"/>
  <path class="cls-4" d="M442.29,505.34c.45-1.3,1.32-1.16,2.35-.47-.65.61-1.53.42-2.35.47Z"/>
  <path class="cls-3" d="M451.84,499.14c.06-.12.1-.31.2-.34.1-.03.28.09.43.14-.06.12-.1.31-.2.35-.1.03-.28-.09-.43-.14Z"/>
</svg>